<svg version="1.2" xmlns="http://www.w3.org/2000/svg" viewBox="0 0 1524 550" width="160" height="58"><style>.a{fill:#ddb162}.b{fill:#fff}</style><path class="a" d="m413.3 60.8h-412.7c0 11.3 9.3 20.6 20.6 20.6h19c6.8 0 12.4 5.5 12.4 12.3v345.5c0 14.7 7.7 28.4 20.2 36l122.5 74v-213.4l-59.2-35.6v160.6c0 6.2-4.5 11.8-10.7 12.5-7.4 0.9-13.7-4.8-13.7-12v-368.7q0.1-0.5 0.1-1.1c0.5-5.8 5.7-10.1 11.6-10.1h171.4c5.8 0 11 4.3 11.5 10.1q0.1 0.6 0.1 1.1v368.2c0 6.2-4.5 11.8-10.6 12.5-7.4 0.9-13.7-4.8-13.7-12v-161.1l-59.2 35.6v213.4l122.4-74c12.6-7.6 20.3-21.3 20.3-36v-345.5c0-6.8 5.5-12.3 12.3-12.3h14.8c11.4 0 20.6-9.3 20.6-20.6z"/><path fill-rule="evenodd" class="a" d="m200.9 101c0.3 0 0.8 0.5 1.6 1.8 0.9 1.2 3.8 5.3 4.9 6.9 1.1 1.7 0.8 1.8 0.7 2.9 0 0.3-0.1 0.7-0.1 1.1 0.2-0.4 0.4-0.8 1-1.3 1.3-1.2 3.1-1.8 3.6-3.9 0.4-2.1-0.8-4.2-0.8-4.2 0 0 2.9 2.1 2.7 5.7-0.1 2.6-1 4.7-1.9 6.2 1-1.1 2.5-2.3 4.7-2.6 2-0.2 3.4 0.3 4.6 0.7 1 0.4 2 0.7 3.2 0.7 2.7 0 5.4-2 5.4-2 0 0 0.4 2.3-2.4 4.5-2.4 1.9-5 0.8-8.2 2.3-1.3 0.6-2.2 1.5-2.7 2.2 0.9-0.3 6-1.7 10.4 0.2 6.3 2.7 8.5 10.8 8.5 10.8 0 0-3-4.7-8.6-5.6-2.9-0.5-5 0.5-5.7 0.9q0 0 0 0.1c0.5-0.1 4.1-0.5 8.5 1.6 4.3 2.1 6.2 6.2 7.3 9.2 1 3.2 0.8 5.9 0.8 5.9 0 0-0.9-5.5-6-8.3-4-2.1-6.9-1.5-7.9-1.2 0.7 0.1 5.4 0.3 9.4 5.5 4.2 5.7 4.1 13.4 4.1 13.4 0 0-1-4.1-3.9-7.1-2.8-2.8-6.5-2.5-7.5-2.4 0.8 0.3 5.8 2.1 8.9 7 2.7 4.2 3.1 9.4 2 13.4q-0.2 0.7-0.5 1.3c1 2.9 1.4 5.8 0.6 8.6-0.4 1.3-1 2.5-1.9 3.6 3.4 4 7.1 7.5 10.3 9.8 5.3 4 7.9 4.5 14.6 8 5.2 2.7 9.5 6.5 12.3 11.4 1.7 2.1 3.7 4 7.1 3.1 5-1.4 3.9-9.4 1.2-16.3-2.7-6.9-6.6-11.7-11-12-3.8-0.3-5.3 7.3-5.3 7.3 0 0-3.8-7.8 1.7-10.9 1.1-0.6 2.1-0.9 3.1-0.9-2.2-2.9-6.9-9.1-11.4-14.8-6-7.8-18.6-19.5-17.2-32.4 1.3-12 12.4-15.3 20.7-9.8 8.2 5.6 13.9 15.2 14.1 20.6 0.2 5.5-1.9 5.8-2 9.5-0.1 3 0.6 3.9 0.6 3.9 0 0-2.9-3.3-3-7.9-0.1-4.5 0.2-4.9-0.4-6.3-0.6-1.4-2.1-2.3-2.1-2.3 0 0 1.7 2.1 1.6 4.9-0.1 2.9-1.8 6.4 0 10.5 1.7 4.2 4.1 5.3 4.1 5.3 0 0-6.3-0.4-10.3-6.9-4.3-7.2-2.5-11.3-2.5-11.3 0 0-2.2 2.3-1.9 6.3 0.2 3.5 2.3 6.2 2.3 6.2 0 0-4.2-2.6-5.3-7.2-1.1-4.6 1-9.3 1.7-13.1 0.7-3.8-0.1-8.1-3.1-9.9-2.8-1.7-8.3-1.7-10.6 6.2-2.2 7.9 4.3 16.4 7.8 21.2 3.5 4.9 7.8 9.6 11.2 13.9 1.9 2.4 5 6.5 7.2 9.7q-0.2-1-0.3-2c-0.2-2 0.7-3.1 0.8-4.6 0.2-2.4-1-4.9-1-4.9 0 0 3.3 2.7 4.2 6.8 0.9 4.2 0.2 5.5 0.6 7.7 0.5 2.2 2.8 4.3 2.8 4.3 0 0-1.2-2.1-1.3-3.9-0.2-1.8 0.2-3.4 0.2-4.4-0.1-3.4-1-5.3-1-5.3 0 0 3.2 3.2 4.1 6 1.9 5.8 0.1 9.4 1.2 12.2 1.3 2.7 5.1 10.9 5.8 16.4 0.7 5.5-0.6 11.1-5.1 13.3-3 1.4-5.2 0.9-6.6 0.3 0.7 6.6-1.4 14.7-5.3 20.4-4.8 7.2-9.1 12.4-9.7 16.9-0.6 4.4 2.3 7.8 5.6 10.5 3.3 2.6 5.6 3.2 8.1 3.7 2.6 0.6 2.4 1.2 3.2 3.6 0.9 2.5 0.2 3.9-3.8 10-3.9 6.1-8 10.3-10.4 14.6-2.3 4.3-0.1 6 2.6 6.5 2.7 0.6 6.3-3.7 6.3-3.7 0 0-3.9 6.5-6.7 6.8-2.8 0.2-3.9-1.5-3.9-1.5 0 0-0.3 1.5 1.1 2.2 1.5 0.8 3.2 0.8 3.2 0.8 0 0-1.6 1.2-3.7 1-2-0.2-2.5-0.8-3.2-1.3 0.2 1 0.6 2.6 0.7 3.6 0.3 1.7 0.5 4.2 0.3 4.5-0.1 0.4-2.2 1-4.7 2.2-2.5 1.2-6 3.2-6.2 3.1-0.3-0.1 0.2-3.4 0.5-5.8 0.2-1.8 0.7-4.3 0.9-5.4-0.9-0.2-2.1-0.7-2.3-1.1-0.2-0.6 0.6-2.5 1.1-3.7 0.8-1.8 4.8-7.3 8.3-13.3 3.5-5.9 8.7-14 8.5-15.8-0.2-1.9-5.1-2.7-10.3-4.4-5.2-1.7-12-5.1-17.6-10.3-1.3-1.2-2.2-2.4-2.8-3.6 0.4 1.5 1 3.3 2 5 1.2 2.1 3.9 5.5 5.8 7.4 1.8 2 2.2 3.2 2 6-0.3 2.9-1.4 4.3-4.7 6.3-3.2 1.9-7.4 4.6-10.8 6.9-3.4 2.3-4.3 5.4-2.5 8.1 1.7 2.6 6.3 1.1 6.3 1.1 0 0-2.7 3.9-6.4 3.5-3.6-0.4-4.1-3.2-4.1-3.2 0 0-0.6 0.9-0.3 2.1 0.3 1.6 1.6 2.1 1.6 2.1 0 0-2.2 0.2-4-0.9-1.6-0.9-1.7-2.4-1.7-2.8-0.3 0.9-0.8 2.3-1 3.7-0.3 2.7 0.1 3.6-0.3 4.1-0.3 0.6-2.4 1.4-4.5 2.3-2.1 1-6.8 3.5-7.1 3.4-0.1-0.1 0.1-0.7 0.3-1.5-1.3 0.5-3.2 1.2-3.4 1.2-0.2-0.2 1.1-4.3 1.9-7.1 0.7-2.9 3-7.1 3-7.1-0.5-0.7 2-2 5.1-4.4 3-2.5 11.6-8.4 16.3-12.9 4.6-4.5 3-5.8 2.1-7.1-3.8-5.6-8.6-9.1-13.7-18.1-5-9 5-15.1 10.6-20.1 4.1-3.8 10.9-9.8 14-12.6-1-6.4-7.4-8.4-13.7-10.5-7.2-2.3-10.4-0.6-16.1-2.2-5.7-1.6-4.9-4.6-5.7-3.9-0.8 0.7-3.9 1.2-6.4 0.7-2.5-0.6-5.4-1.9-10.8-3.9-5.3-1.9-11.1-4.2-13-4.5-0.9-0.2-1.7 0.7-3.4 1.4-1.5 0.6-2.2 0.3-2.8 1.2-0.5 0.8-1.8 6.2-2.4 10.6-0.5 4.5 0.5 7.7 4.2 9.1 3.8 1.3 6.8-6.1 6.8-6.1 0 0 1 3.6-1.1 6.9-2.1 3.4-5.3 3.4-5.3 3.4 0 0 0.2 0.8 1.2 1.1 1.2 0.4 3.6-0.1 3.6-0.1 0 0-1.8 1.9-4.7 2.1-2.8 0.2-3.7-0.8-3.7-0.8q0 0 0 0.1c1.2 1.7 3.4 4.6 3.7 4.8 0.3 0.3-2 2.7-3.9 5.4-1.9 2.8-3.3 6.4-3.6 6.4-0.2-0.1-0.5-1.7-0.9-3.5-0.6 1.5-2.1 4.2-2.3 4.3-0.3 0.1-0.5-2.3-1.1-5.8-0.5-2.9-0.8-6-0.9-7-0.8-1.7-0.3-5.7 0.2-9.5 0.7-5.7 1.9-8.3 3.3-17.2 1.3-8.9 1.3-10.2 1.4-12.2 0.1-1.9 0.5-2.3 1.2-2.9 0.7-0.5 2.2-1.6 3.7-2.6 1.6-1.1 2.5-0.9 3.4-0.5 0.9 0.4 1.3 0.4 4.2 1.1 2.8 0.6 8 0.8 12.3 1-2.2-2.8-4.5-5.5-5.7-7-3.1-3.7-5.3-7.5-6.4-8.1-0.6-0.3-1.1 0-1.7 0.2-0.5 0.2-1.1 0.5-1.9 0.4-1.7-0.2-1.6-1.1-3.2-1.4-1.6-0.3-9.5 2.8-12 4.1-2.5 1.3-4.2 2.6-3.4 5 1.2 3.2 5.5 2.5 5.5 2.5 0 0-2.8 2.5-5.6 1.4-3.7-1.4-3-5.6-3-5.6 0 0-0.8 0.9-0.7 2.6 0 1 1.1 2.8 1.1 2.8 0 0-2.3-0.7-3.4-2.5-1.2-1.9-0.3-4.6-0.3-4.6 0 0-2.1 5.2-2.7 5.5-0.6 0.2-1.7-0.5-4.1-1.1-2.4-0.6-6.6-1.3-6.7-1.7 0-0.3 0.6-0.9 1.7-1.7-0.8-0.2-2.2-0.5-2.3-0.9-0.1-0.5 1.3-1.6 3-3.2 1.4-1.2 3.6-2.9 4.4-3.5v-0.1c0.1-0.5 2.8-1.9 2.8-1.9 2.8-2 6.2-0.8 11-0.7 4.8 0.1 12.3-2.8 13.5-3.3 1.1-0.6 1.5-1.5 2-1.9 0.5-0.3 2.8-0.2 4.9 0.2 2.1 0.4 1.9 1.1 2.7 1.7 0.7 0.5 3.3 2.1 6.2 3.5 2.9 1.3 10.1 4.4 10.2 4.4 0.8-2.9 2.1-5.6 3.7-9.8 2.2-5.7 2.1-7.6 2.9-13.7 0.8-6.1-0.5-7.6-0.5-7.6 0 0-2.2-1.3-5.2-0.9-2 0.3-3.7 3.3-4.8 5.7 0.4 0.2 1 0.4 2 0.9 2.1 1 3.7 2.3 4.1 3.9 0.4 1.8-0.4 2.8-0.4 2.8 0 0 0-0.7-0.5-1.2-0.5-0.5-1-0.4-1-0.4 0 0 0.7 0.9 0.9 1.8 0.1 1-0.2 2.3 0.6 3.9 0.6 1.6 2.5 2.2 2.5 2.2 0 0-2.5 1.2-5.3-0.9-2.5-1.7-2-6.2-2.2-6.3-0.1 0 0.1 2-0.4 3.2-0.5 1.3-1.4 1.8-1.4 1.8 0 0 0.6-2.6 0.2-4.4-0.3-1.9-1.8-2.7-1.8-2.7l0.1-0.2c-0.6 0.3-1.4 0.4-2.4 0.6-1.8 0.4-2.8-0.2-3-0.4-0.1-0.3 2.2-1.6 3.2-2.9 0.9-1.3 1.3-2.7 1.1-3.7-0.1-0.9-1.5-0.1-3.2 0.3-1.6 0.4-1.2 0.8-1.9 2.6-0.7 1.6-1.4 3-2.1 3.2-0.4 0-1.5-1-2.2-2.5-0.7-1.5-0.2-2.9-0.1-3.9 0-0.9-0.1-2.1-0.2-3.1-0.1-1 0.3-1.2 1-2 0.8-0.7 3.1-2 4.2-3.1 1.2-1.1 1.9-3 3.1-5.6 1-2.2 2.5-4.4 3-5-1.7 0-4.1-0.1-6.2-1.5-2.9-1.9-3.2-5.1-3.2-5.1 0 0 1.2 3.1 5.4 2.8 2.8-0.2 4.2-2.7 5.7-3.7 2-1.3 2.8-1.2 2.8-1.2-0.8-0.3-1.8-0.8-2.1-1.1 0 0-0.5 0.1-1 0-0.7-0.1-3.3-0.6-4.2-1.3 0 0-1.2-0.1-3.2-1-1.9-0.8-2.7-1.4-3.3-1.8 0-0.1-0.1-0.2-0.1-0.2v0.1c0 0-1.3-0.3-2.9-1-1.5-0.7-2.6-1.6-2.8-1.7 0 0-1.3-0.3-2-0.7-0.7-0.3-1.8-0.9-2.2-1.4q-0.1-0.1-0.1-0.2c-0.5 0-2.6-1.1-4.7-2.2-2.2-1.1-3.5-2.2-3.4-2.5 0.1-0.2 1.7 0.2 2.9 0.5 1.2 0.4 2.3 0.8 2.3 0.8 0 0 0.1 0.1 0.2 0.2-0.1-0.1-0.2-0.2-0.2-0.2 0 0 1.7 0.2 2.8 0.6 1.2 0.4 1.8 0.9 1.8 0.9 0 0 0.3-0.1 0.7 0 0.4 0 1.6 0.3 2.5 0.6 0.7 0.2 1 0.3 1.5 0.6q0.1 0 0.2 0.2c0 0 0-0.1 0.1-0.1 0.2-0.1 1.9 0.4 3.1 0.6 1 0.2 2.1 0.6 2.7 0.8 0.3 0.1 0.4 0.3 0.6 0.4 0-0.1 0-0.2 0.2-0.1 0.7 0.1 2.4 0.7 3.5 1.1 1.6 0.5 2.1 0.7 2.5 1q0.1 0.1 0.4 0.4c-0.2-0.2-0.2-0.4-0.2-0.4 0.2-0.2 1.9 0.2 2.8 0.5 1.1 0.4 1.9 0.9 2.3 1.1 0.1 0.2 0.3 0.3 0.3 0.4 0-0.1 0-0.1 0.1-0.2 0.3-0.2 2.5 1 3.9 1.4q0.3 0.1 0.5 0.2l-0.2-0.2c0 0-0.9-3-1.4-4.9-0.5-2-0.9-5-0.5-5.2 0.3-0.2 1.8 1.6 2.5 2.3 0.5 0.6 1 1.1 1.4 1.5v-0.1c0-1-0.1-2.3-0.2-3.5 0-0.1 0-0.6 0-0.7-0.1-1.3-0.1-2.3 0.1-2.3zm-31.1 6.6q0 0 0 0v-0.1q0 0.1 0 0.1zm15.7 41.7q0 0 0 0 0 0 0 0zm0 0c-0.1 0-0.7-0.3-1.8 0.9-1.8 1.9-0.5 5.6-2.5 8.8-1.9 3-5 3.6-7.1 1.4-2.5-2.4-1-6.4-1-6.4 0 0-0.1 3.3 3.3 4.4 2 0.7 4.4-1.2 4.9-4.6 0.5-3 1.5-4.8 2.7-5.1q0.2 0 0.4 0c0.8 0 1.1 0.6 1.1 0.6z"/><path class="a" d="m173 18.6c-2.6 5.2 2.7 11 7.6 8 1.2 1.6 2.6 3 4.1 4.3-0.9 1-0.7 2.8 0.4 3.6 0.5 0.4 1.7 0.3 1.9 0.8 0.4 0.8-1.1 1.2-0.8 2.8 0.1 0.3 0.4 0.6 0.6 0.8 0.2 0.2 0.8 0.4 0.8 0.9-0.1 0.4-0.5 0.3-1.1 0.8-0.2 0.2-0.7 0.8-0.8 1-0.9 2.7 1.5 3.3 3.5 3.9 1.2 0.2 2.7 0.5 4.1 0.7 6.8 0.9 14 1.2 21.2 0.9 6.1-0.3 12.5-0.3 17.8-1.6 2.1-0.6 3.8-1.2 3.7-3.1-0.1-1.5-2.2-2.1-2-3.1 0.1-0.4 1.2-0.6 1.4-1.4 0.3-1.7-0.8-1.6-0.8-2.8 1.7-0.3 3-1.1 2.7-3.1 0-0.3-0.6-0.8-0.5-1.1 0 0 0.8-0.8 1-1 1.4-1.2 2.2-2.1 3.2-3.4 5 3.3 10.5-3.1 7.7-8 0.7-0.1 1.3-0.5 1.5-1 1-2.8-3.2-3.9-3.5-1.1-5-3.1-10.2 3.1-7.6 8-1.8 0.7-4.9 3.5-7.5 2.4-1.6-0.7-1.6-3.2-1.5-5.6 3.7 0.3 4.9-5.3 2.4-7.3 0.3-0.5 0.6-0.8 0.6-1.6-0.1-2.2-3.8-2-3.1 0.8-3.3-0.2-4.7 4.4-2.7 6.8-1.9 2.3-4.2 4.9-8.3 4.5-4.3-0.5-5.3-4.8-5.9-9.4 3.9-1.4 3.9-8 0.7-10.2-0.5-0.3-1-0.3-1.5-0.7 0.3-0.6 0.4-0.9 0.4-1.6-0.2-1.2-1-1.7-1.8-1.7-1.4 0-3 1.4-1.7 3.3-4 0.8-5.1 7.1-2.3 10 0.4 0.4 1 0.5 1.4 1.1-0.6 5.2-2.1 9.7-7.6 9.2-3-0.3-4.9-2.4-6.4-4.4 2.1-2.3 0.6-7-2.5-7 0.4-4-5.1-1.7-2.5 0.9-2.7 1.8-1.5 7.5 2 7.3 0.3 2.5 0 4.9-1.5 5.6-2.4 1.1-5.5-1.6-7.3-2.3 2.6-5.7-2.8-10.9-7.7-8.1-0.1-0.8-0.4-1.3-0.9-1.5-2.6-1.1-3.6 3.4-1 3.7z"/><path class="b" d="m1507.4 109.3q3.3 0 6.2 1.2 2.9 1.3 5.1 3.5 2.2 2.2 3.4 5.1 1.3 2.9 1.3 6.2 0 3.3-1.3 6.2-1.2 2.9-3.4 5.1-2.2 2.2-5.1 3.4-2.9 1.3-6.2 1.3-3.3 0-6.2-1.3-2.9-1.2-5.1-3.4-2.2-2.2-3.5-5.1-1.2-2.9-1.2-6.2 0-3.3 1.2-6.2 1.3-2.9 3.5-5.1 2.2-2.2 5.1-3.5 2.9-1.2 6.2-1.2zm0 1.8q-3.8 0-6.8 2-3.1 1.9-5 5.1-1.8 3.2-1.8 7.1c0 2.6 0.6 4.9 1.8 7.1q1.9 3.2 5 5.1 3 1.9 6.8 1.9 3.8 0 6.9-1.9 3-1.9 4.9-5.1 1.8-3.3 1.8-7.1c0-2.6-0.6-5-1.8-7.1q-1.8-3.2-4.9-5.1-3.1-2-6.9-2zm0.5 4.3q3.3 0 5 1.2 1.7 1.1 1.7 3.3 0 1.1-0.7 2.3-0.6 1.1-2.3 1.9-1.8 0.7-5 0.9l-3.5 0.2v-1h3.1q3 0 3.9-1 0.9-1.1 0.9-2.7 0-2.2-0.9-3.2-0.9-1.1-3.1-1.1-1.4 0-1.8 0.4-0.4 0.4-0.4 1.5v12.8q0 1.4 0.3 1.7 0.2 0.3 1 0.5v0.8q-0.5 0-1.3 0-0.8 0-1.6 0-0.9 0-1.7 0-0.8 0-1.3 0v-0.8q0.8-0.2 1.1-0.5 0.2-0.3 0.2-1.7v-12.5q0-1.4-0.2-1.7-0.3-0.4-1.1-0.5v-0.8q0.5 0 1.3 0h1.5q1.6 0 3 0 1.3 0 1.9 0zm-4.5 8.9q2 0 2.8 0.1 0.8 0 1.3 0.1 0.4 0.1 1 0.2 2.7 0.2 3.7 1.1 1 0.8 1.3 2.3l0.7 3.2q0.2 0.8 0.3 1.4 0.2 0.5 0.7 0.5 0.5 0 0.7-0.4l0.6 0.4q-0.4 0.6-0.9 0.9-0.7 0.3-1.6 0.3-1.5 0-2.2-0.6-0.7-0.6-1-1.8l-0.9-4.2q-0.3-1.2-0.8-1.7-0.4-0.6-1.7-0.8-1.2-0.1-3.8-0.2l-0.1-0.8z"/><path class="b" d="m501.1 139.9v4.3q-7.3 0.2-11.1 1.6-3.7 1.4-5 5.2-1.3 3.7-1.3 11.6v106.3q0 7.7 1.3 11.6 1.3 3.8 5 5 3.8 1.2 11.1 1.2h15.6q13.5 0 20.5-3.9 6.9-3.8 10-12.6 3.1-8.8 4.6-23.6h5q-0.7 6.7-0.7 17.6 0 4.1 0.4 11.7 0.3 7.6 1.1 15.7-10.9-0.4-24.6-0.5-13.7-0.1-24.4-0.1h-17.1q-10.6 0-22.6 0.1-12 0.1-22.4 0.5v-4.3q7.2-0.4 11-1.7 3.7-1.3 5-5.1 1.3-3.9 1.3-11.6v-106.2q0-8-1.3-11.7-1.3-3.8-5-5.2-3.8-1.3-11-1.6v-4.3q4.5 0.3 11.7 0.5 7.3 0.2 15.7 0.2 7.5 0 14.9-0.2 7.3-0.2 12.3-0.5z"/><path class="b" d="m703.7 139.9v4.3q-7.3 0.2-11 2.2-3.8 1.9-5 6.2-1.3 4.3-1.3 12.2v64.5q0 15-2 26.1-1.9 11.1-6.8 19.3-5.4 9-15.7 14.4-10.2 5.5-23.5 5.5-10.3 0-19.6-2.5-9.3-2.4-16.4-9.1-6.2-6-9.8-12.6-3.5-6.6-4.8-16.3-1.3-9.6-1.3-24.2v-67.3q0-7.9-1.3-11.6-1.3-3.8-5-5.2-3.7-1.4-11-1.6v-4.3q4.5 0.2 11.8 0.5 7.2 0.2 15.6 0.2 7.5 0 14.9-0.2 7.4-0.3 12.3-0.5v4.3q-7.3 0.2-11 1.6-3.8 1.4-5 5.2-1.3 3.7-1.3 11.6v70.9q0 14.6 2.1 26.8 2.1 12.2 9.3 19.5 7.2 7.3 22.4 7.3 16.3 0 25.2-7.2 8.9-7.2 12.4-19.8 3.5-12.6 3.5-28.5v-66.8q0-8-1.8-12.3-1.8-4.2-6.1-6.2-4.3-1.9-11.6-2.1v-4.3q3.9 0.2 10.2 0.4 6.3 0.2 11.7 0.2c3.6 0 7.4 0 11-0.2q5.5-0.2 8.9-0.4z"/><path class="b" d="m773.5 213.4l2 5.6-26.4 39.2q-7.7 11.5-8 17.8-0.3 6.2 4.8 8.6 5.2 2.5 14.2 2.7v4.3q-4.1-0.2-9.5-0.3-5.3-0.1-10.5-0.2-5.1-0.1-9-0.1-11.8 0-18.2 0.6v-4.3q6.7-1 12.4-6 5.8-4.9 11.8-13.7l36.4-54.2zm-11.7-73.5v4.5q-10.8 0-13.1 2.3-2.4 2.2 0.6 7.2l80.1 122.5q4.1 6.2 6.9 8.2 2.8 2.1 7.5 2.5v4.5q-2.8-0.2-7.8-0.5-5-0.3-10.6-0.4-8.6 0.1-17.3 0.4-8.6 0.3-12.9 0.5v-4.5q10.7 0 13.7-1.3 3-1.3 0-6l-81.4-124.7q-4.1-6.2-6.8-8.3-2.6-2.2-7.6-2.4v-4.5q2.8 0.2 8 0.6 5.1 0.3 10.5 0.3 8.7 0 16.5-0.3 7.7-0.3 13.7-0.6zm77.5 0v4.3q-6.6 0.9-12.4 5.9-5.8 5-11.8 13.8l-34.5 51.4-1.3-5.5 24.4-36.5q11.6-17.3 8.9-23.1-2.6-5.8-16.1-6v-4.3q6.2 0.2 12.6 0.4 6.4 0.3 12 0.3 11.8 0 18.2-0.7z"/><path class="b" d="m854.3 139.9q4.5 0.2 11.8 0.5 7.3 0.2 14.3 0.2 10.1 0 19.3-0.2 9.2-0.2 13.1-0.2 25.9 0 38.8 10.7 12.8 10.7 12.8 26.5 0 6.5-2.6 13.7-2.5 7.3-8.9 13.7-6.3 6.5-17.2 10.6-10.9 4.2-27.6 4.2h-20.6v-4.3h18.4q15.2 0 23.3-4.8 8-4.8 10.9-12.8 2.9-8.1 2.9-17.9 0-16.9-8.1-26.3-8-9.3-27.5-9.3-9.8 0-12.8 3.7-3 3.6-3 14.7v106.3q0 7.7 1.3 11.6 1.2 3.8 5 5.1 3.7 1.3 11 1.7v4.3q-4.9-0.4-12.3-0.5-7.4-0.2-14.9-0.2-8.4 0-15.6 0.2-7.3 0.1-11.8 0.5v-4.3q7.3-0.4 11-1.7 3.8-1.3 5-5.1 1.3-3.9 1.3-11.6v-106.3q0-7.9-1.3-11.6-1.2-3.8-5-5.2-3.7-1.4-11-1.6v-4.3zm34 76.1q11.6 0.4 18.3 0.9 6.6 0.6 10.8 1 4.2 0.4 8 1.1 14.4 2.3 20.7 8.6 6.3 6.4 9.3 19.6l5.4 21.9q2.1 9.4 4.3 13.6 2.3 4.2 7 4 3.6-0.3 6.1-2.4 2.5-2.1 5.3-5.8l3.2 2.4q-4.5 6.6-9.3 10.2-4.9 3.5-13.6 3.5-8 0-14-4.7-6-4.7-9-18.4l-4.7-21.5q-1.9-9.2-4.4-15.9-2.4-6.8-6.8-10.6-4.4-3.9-13-3.9h-23.1z"/><path class="b" d="m1047.8 139.9v4.3q-7.3 0.2-11.1 1.6-3.7 1.4-5 5.2-1.3 3.7-1.3 11.6v106.3q0 7.7 1.3 11.6 1.3 3.8 5 5.1 3.8 1.3 11.1 1.7v4.3q-5-0.4-12.4-0.5-7.4-0.2-14.9-0.2-8.3 0-15.6 0.2-7.3 0.1-11.8 0.5v-4.3q7.3-0.4 11-1.7 3.8-1.3 5.1-5.1 1.3-3.9 1.3-11.6v-106.3q0-7.9-1.3-11.6-1.3-3.8-5.1-5.2-3.7-1.4-11-1.6v-4.3q4.5 0.2 11.8 0.5 7.3 0.2 15.6 0.2 7.5 0 14.9-0.2 7.4-0.2 12.4-0.5z"/><path class="b" d="m1124.2 139.9q38.4 0 57 19.2 18.6 19.2 18.7 55-0.1 23.3-9.1 40.8-9.2 17.4-26.5 27.1-17.4 9.6-42 9.6-4.7 0-13.9-0.3-9.2-0.3-16.1-0.3-7.5 0-14.8 0.1-7.3 0.1-11.7 0.5v-4.3q7.2-0.4 11-1.7 3.7-1.3 5-5.1 1.3-3.9 1.3-11.6v-106.2q0-8-1.3-11.7-1.3-3.8-5-5.2-3.8-1.3-11-1.6v-4.3q4.5 0.3 11.7 0.6 7.3 0.3 14.4 0.1 7.5-0.2 16.9-0.4 9.4-0.2 15.4-0.2zm-5.3 3.8q-9.9 0-12.9 3.7-3 3.6-3 14.7v107.1q0 11.2 3.1 14.8 3.1 3.7 13 3.7 23.3 0 36.2-8.5 12.8-8.5 18-24.7 5.1-16.3 5.1-39.7 0-35.9-13.1-53.5-13.2-17.6-46.4-17.6z"/><path class="b" d="m1292.2 136.9q13.9 0 22.5 4.2 8.5 4.2 16 9.8 2.8 2.1 4.3 2.1 4.1 0 5.4-13.1h4.9q-0.4 8-0.6 19.3-0.3 11.4-0.3 30h-4.9q-1.5-9-3.6-17.3-2.2-8.4-7.1-14.4-6.2-7.9-16.3-12.3-10-4.4-20.8-4.4-10.7 0-19.3 5.2-8.7 5.3-14.9 15.1-6.2 9.9-9.6 23.7-3.3 13.8-3.3 31.2 0 38.5 12.4 56.4 12.5 17.9 38.6 17.9 7.7 0 13.4-2.2 5.7-2.3 8.9-4.4 4-2.8 5.1-5.3 1.1-2.4 1.1-6.5v-20.6q0-8.7-1.7-13-1.7-4.3-6.3-5.8-4.6-1.5-13.6-1.7v-4.3q3.8 0.2 9 0.3 5.1 0.1 10.8 0.2 5.7 0.1 10.4 0.1 7 0 12.7-0.2 5.7-0.2 9.5-0.4v4.3q-7 0.4-9 3.4-1.9 3-1.9 15v42.4h-4.3q-0.2-3.6-1.6-7.9-1.4-4.3-4.2-4.3-1.2 0-2.5 0.7-1.3 0.6-4.5 3-7.1 5.3-15 8.4-8 3.1-18.5 3.1-33.2 0-51.7-20.2-18.5-20.3-18.5-56 0-25.1 9-43.3 9-18.2 24.5-28.2 15.5-9.9 35.5-9.9z"/><path class="b" d="m1478.1 139.9q-0.8 7.5-1.2 14.6-0.3 7.1-0.3 10.7 0 3.9 0.2 7.4 0.2 3.5 0.5 5.9h-5q-1.3-12.6-3.6-20-2.4-7.4-8-10.5-5.7-3.1-17.1-3.2h-17.8q-7.2 0-11 1.2-3.7 1.2-5 5-1.3 3.7-1.3 11.6v106.3q0 7.7 1.3 11.5 1.3 3.9 5 5.1 3.8 1.2 11.1 1.2h15.6q13.5 0 20.5-3.7 6.9-3.6 10-11.9 3.1-8.2 4.6-22.4h5q-0.7 5.8-0.7 15.5 0 4 0.3 11.6 0.4 7.6 1.2 15.8-10.9-0.4-24.6-0.6-13.7-0.1-24.4-0.1h-17.1q-10.6 0-22.6 0.1-12 0.2-22.5 0.6v-4.3q7.3-0.4 11.1-1.7 3.7-1.3 5-5.1 1.3-3.9 1.3-11.6v-106.3q0-7.9-1.3-11.6-1.3-3.8-5-5.2-3.8-1.4-11.1-1.6v-4.3q10.5 0.2 22.5 0.5 12 0.2 22.6 0.2h17.1q9.8 0 22.3-0.1 12.6-0.1 22.4-0.6zm-36.8 73.3v4.3h-39.2v-4.3zm6.2-28.3q-0.9 12.2-0.7 18.6 0.1 6.5 0.1 11.8 0 5.4 0.2 11.8 0.2 6.4 1 18.6h-4.9q-0.8-6.8-2-13.4-1.2-6.5-5.2-10.7-3.9-4.1-13.4-4.1v-4.3q9.5 0 13.2-5 3.8-4.9 4.8-11.5 1.1-6.7 2-11.8h4.9z"/><path class="b" d="m471.8 319.1q4.1 4.1 4.1 12.6v2.6q0 5.7-1.8 9.3-1.9 3.7-5.6 5.4 8.6 3.4 8.5 15.7v5.9q0 8.5-4.4 12.9-4.4 4.4-13 4.4h-18v-73h17.3q8.9 0 12.9 4.2zm-18.7 25.6h4.5q3.4 0 5.1-1.8 1.7-1.8 1.7-6v-4q0-4-1.4-5.8-1.4-1.7-4.4-1.7h-5.5v19.3zm0 32.8h6.5q3.1 0 4.5-1.6 1.5-1.6 1.5-5.6v-6.4q0-5-1.7-6.9-1.8-1.9-5.7-1.9h-5.1c0 0 0 22.4 0 22.4z"/><path class="b" d="m511.5 371.2q0 7.1 6 7.1 5.9 0 5.9-7.1v-56.2h10.9v55.5q0 8.9-4.4 13.6-4.4 4.8-12.7 4.8-8.4 0-12.7-4.8-4.4-4.7-4.4-13.6v-55.5h11.4c0 0 0 56.2 0 56.2z"/><path class="b" d="m570.2 314.9v73h-11.4v-73z"/><path class="b" d="m606.7 314.9v62.6h18.9v10.4h-30.4v-73z"/><path class="b" d="m665.4 314.9q8.6 0 12.8 4.6 4.3 4.6 4.3 13.5v36.9q0 8.8-4.3 13.4-4.2 4.6-12.8 4.6h-18.1v-72.9h18.1zm-6.7 62.5h6.5q2.8 0 4.3-1.7 1.5-1.6 1.5-5.4v-37.9q0-3.8-1.5-5.5-1.5-1.6-4.3-1.6h-6.5c0 0 0 52.1 0 52.1z"/><path class="b" d="m718 314.9v73h-11.5v-73z"/><path class="b" d="m753.2 387.9h-10.3v-73h14.4l11.7 43.7v-43.7h10.3v73h-11.8l-14.3-52.8c0 0 0 52.8 0 52.8z"/><path class="b" d="m837.4 347.3v23.1q0 8.9-4.4 13.6-4.3 4.7-12.7 4.7-8.3 0-12.7-4.7-4.4-4.7-4.4-13.6v-38q0-8.8 4.4-13.6 4.4-4.7 12.7-4.7 8.4 0 12.7 4.7 4.4 4.8 4.4 13.6v7.1h-10.8v-7.8q0-7.2-6-7.2-5.9 0-5.9 7.2v39.4q0 7.1 5.9 7.1 6 0 6-7.1v-13.4h-5.2v-10.4z"/><path class="b" d="m927.6 370.4q0 8.9-4.4 13.6-4.4 4.7-12.7 4.7-8.4 0-12.7-4.7-4.4-4.7-4.4-13.6v-38q0-8.8 4.4-13.6 4.3-4.7 12.7-4.7 8.3 0 12.7 4.7 4.4 4.8 4.4 13.6v7.1h-10.9v-7.8q0-7.2-5.9-7.2-5.9 0-5.9 7.2v39.4q0 7.1 5.9 7.1 5.9 0 5.9-7.1v-10.4h10.9z"/><path class="b" d="m954.8 318.9q4.5-4.8 12.9-4.8 8.5 0 13 4.8 4.4 4.8 4.4 13.5v38q0 8.8-4.4 13.5-4.5 4.8-13 4.8-8.4 0-12.9-4.8-4.5-4.7-4.5-13.5v-38q0-8.7 4.5-13.5zm12.9 59.4q6 0 6-7.2v-39.4q0-7.2-6-7.2-5.9 0-5.9 7.2v39.4q0 7.2 5.9 7.2z"/><path class="b" d="m1019.4 387.9h-10.3v-73h14.4l11.8 43.7v-43.7h10.2v73h-11.8l-14.3-52.8v52.8z"/><path class="b" d="m1102.5 314.9v10.5h-12v62.5h-11.5v-62.5h-11.9v-10.5c0 0 35.4 0 35.4 0z"/><path class="b" d="m1147.3 384.6q-0.2-1.6-0.2-5.6v-11.5q0-5-1.7-7.2-1.8-2.1-5.8-2.1h-3.9v29.7h-11.5v-73h17.3q8.9 0 12.9 4.2 4.1 4.1 4.1 12.6v5.8q0 11.2-7.5 14.8 4.1 1.6 5.8 5.5 1.8 4 1.8 10v11.3q0 3.1 0.2 5 0.2 1.9 1 3.8h-11.6q-0.7-1.7-0.9-3.3zm-11.6-36.8h4.4q3.5 0 5.2-1.8 1.7-1.8 1.7-5.9v-7.2q0-4-1.4-5.8-1.4-1.7-4.4-1.7h-5.6v22.4z"/><path class="b" d="m1208.3 387.9l-2-13.2h-14l-2 13.2h-10.5l11.6-73h16.8l11.7 73zm-3.5-23.1l-5.6-36.9-5.5 36.9z"/><path class="b" d="m1275.1 370.4q0 8.9-4.3 13.6-4.4 4.7-12.8 4.7-8.3 0-12.7-4.7-4.4-4.7-4.4-13.6v-38q0-8.8 4.4-13.6 4.4-4.7 12.7-4.7 8.4 0 12.8 4.7 4.3 4.8 4.3 13.6v7.1h-10.8v-7.8q0-7.2-5.9-7.2-6 0-6 7.2v39.4q0 7.1 6 7.1 5.9 0 5.9-7.1v-10.4h10.8z"/><path class="b" d="m1330.9 314.9v10.5h-12v62.5h-11.5v-62.5h-11.9v-10.5c0 0 35.4 0 35.4 0z"/><path class="b" d="m1364.1 314.9v73h-11.5v-73z"/><path class="b" d="m1399.3 387.9h-10.3v-73h14.4l11.8 43.7v-43.7h10.2v73h-11.8l-14.3-52.8v52.8z"/><path class="b" d="m1483.5 347.3v23.1q0 8.9-4.4 13.6-4.3 4.7-12.7 4.7-8.3 0-12.7-4.7-4.4-4.7-4.4-13.6v-38q0-8.8 4.4-13.6 4.4-4.7 12.7-4.7 8.4 0 12.7 4.7 4.4 4.8 4.4 13.6v7.1h-10.8v-7.8q0-7.2-5.9-7.2-6 0-6 7.2v39.4q0 7.1 6 7.1 5.9 0 5.9-7.1v-13.4h-5.2v-10.4z"/></svg>