<svg version="1.2" xmlns="http://www.w3.org/2000/svg" viewBox="0 0 1793 755" width="170" height="72"><style>.a{fill:#c09949}.b{fill:#010101}</style><path class="a" d="m567.9 83.1h-567c0 15.6 12.6 28.3 28.3 28.3h26.1c9.3 0 16.9 7.6 16.9 17v474.7c0 20.2 10.6 39 27.9 49.4l168.2 101.8v-293.3l-81.3-49v220.8c0 8.5-6.2 16.1-14.6 17.2-10.2 1.2-18.9-6.7-18.9-16.6v-506.6q0-0.7 0.1-1.5c0.7-8 7.9-13.9 15.9-13.9h235.5c8.1 0 15.2 5.9 15.9 13.9q0.1 0.8 0.1 1.5v506c0 8.5-6.2 16.1-14.6 17.2-10.2 1.2-18.9-6.7-18.9-16.6v-221.4l-81.3 49v293.3l168.2-101.8c17.3-10.4 27.9-29.2 27.9-49.4v-474.7c0-9.4 7.6-17 17-17h20.3c15.6 0 28.3-12.7 28.3-28.3z"/><path class="b" d="m659.8 185.3v3.4q-5.8 0.2-8.8 1.3-3 1.1-4 4.1-1 3-1 9.3v84.6q0 6.1 1 9.2 1 3.1 4 4 3 1 8.8 1h12.5q8 0 13-1.7 5-1.8 8-5.4 3-3.7 4.5-9.8 1.6-6.2 2.4-15h3.9q-0.5 5.3-0.5 14 0 3.2 0.3 9.3 0.3 6 0.9 12.5-8.7-0.4-19.6-0.4-10.9-0.1-19.4-0.1h-9.6q-5.9 0-12.8 0.1-6.8 0-13.8 0.1-7 0.1-13.3 0.3v-3.4q5.8-0.4 8.8-1.4 3-1 4-4.1 1-3.1 1-9.2v-84.6q0-6.3-1-9.3-1-3-4-4.1-3-1.1-8.8-1.3v-3.4q3.6 0.2 9.4 0.4 5.8 0.2 12.5 0.1 5.9 0 11.8-0.1 5.9-0.2 9.8-0.4z"/><path class="b" d="m814.3 185.3v3.4q-5.8 0.2-8.8 1.7-2.9 1.6-4 5-1 3.4-1 9.7v51.3q0 12-1.5 20.8-1.6 8.9-5.5 15.4-4.2 7.2-12.4 11.5-8.2 4.4-18.8 4.4-8.2 0-15.6-2-7.4-2-13.1-7.2-4.9-4.8-7.7-10.1-2.8-5.3-3.9-13-1-7.6-1-19.2v-53.6q0-6.3-1-9.3-1-3-4-4.1-3-1.1-8.8-1.3v-3.4q3.6 0.2 9.4 0.4 5.8 0.1 12.4 0.1 6 0 11.9-0.1 5.9-0.2 9.8-0.4v3.4q-5.8 0.2-8.8 1.3-3 1.1-4 4.1-1 3-1 9.3v56.5q0 8.7 0.8 16.4 0.9 7.8 3.5 13.7 2.7 5.8 8.1 9.2 5.5 3.3 14.5 3.3 13 0 20.1-5.7 7-5.7 9.9-15.8 2.8-10.1 2.8-22.7v-53.2q0-6.3-1.5-9.7-1.4-3.4-4.8-4.9-3.5-1.6-9.3-1.7v-3.5q3.1 0.2 8.1 0.4 5.1 0.2 9.3 0.2c2.9 0 5.9-0.1 8.8-0.2q4.4-0.2 7.1-0.4z"/><path class="b" d="m863.1 243.8q0.7 2.3 1.5 4.5l-21 31.2q-6.1 9.2-6.4 14.1-0.2 5 3.9 6.9 4.1 2 11.2 2.2v3.4q-2.3-0.2-5.4-0.3-3.1-0.1-6.3-0.2-3.1 0-6.1 0h-5.2q-4.3 0-8.1 0-3.8 0.1-6.4 0.5v-3.4q5.3-0.9 9.9-4.8 4.6-3.9 9.4-10.9l29-43.2zm-9.4-58.5v3.6q-8.5 0-10.4 1.8-1.9 1.8 0.5 5.7l63.8 97.6q3.2 4.9 5.4 6.5 2.3 1.7 6 2v3.6q-2.2-0.2-6.2-0.5-4-0.2-8.5-0.2-6.8 0-13.7 0.2-6.9 0.3-10.3 0.5v-3.6q8.5 0 10.9-1 2.4-1 0-4.8l-64.8-99.3q-3.2-4.9-5.4-6.6-2.1-1.7-6-1.9v-3.6q2.2 0.2 6.3 0.5 4.1 0.2 8.3 0.2 7 0 13.2-0.2 6.1-0.3 10.9-0.5zm61.7 0v3.4q-5.3 0.7-9.9 4.7-4.6 4-9.3 11l-27.5 41-1-4.5 19.4-29q6.2-9.2 7.2-14.1 1-5-2.4-6.9-3.4-2-10.6-2.2v-3.4q3.3 0.2 6.7 0.3 3.4 0.1 6.7 0.2 3.3 0 6.2 0 4.5 0 8.2-0.1 3.8-0.2 6.3-0.4z"/><path class="b" d="m920.6 185.3q3.5 0.2 9.3 0.4 5.8 0.1 11.5 0.1 8 0 15.3-0.1 7.4-0.2 10.4-0.2 13.8 0 23 3.9 9.1 3.9 13.6 10.7 4.5 6.7 4.5 15.1 0 5.1-2 10.9-2.1 5.8-7.1 10.9-5 5.1-13.7 8.4-8.7 3.4-22 3.4h-16.4v-3.4h14.7q12.1 0 18.5-3.9 6.4-3.8 8.7-10.2 2.3-6.4 2.3-14.3 0-13.4-6.4-20.8-6.4-7.5-22-7.5-7.8 0-10.2 2.9-2.4 2.9-2.4 11.8v84.6q0 6.1 1 9.2 1.1 3.1 4.1 4.1 2.9 1 8.7 1.4v3.4q-3.9-0.4-9.8-0.5-5.9 0-11.8 0-6.7 0-12.5 0-5.8 0.1-9.4 0.5v-3.4q5.8-0.4 8.8-1.4 3-1 4-4.1 1.1-3.1 1.1-9.2v-84.6q0-6.3-1.1-9.3-1-3-4-4.1-3-1.1-8.8-1.3c0 0 0-3.4 0.1-3.4zm27.1 60.6q9.2 0.3 14.5 0.7 5.3 0.5 8.6 0.8 3.3 0.4 6.4 0.9 11.4 1.8 16.4 6.9 5.1 5 7.5 15.6l4.2 17.4q1.7 7.5 3.5 10.8 1.8 3.3 5.6 3.2 2.9-0.2 4.8-1.9 2-1.7 4.2-4.6l2.6 1.9q-3.6 5.2-7.5 8.1-3.8 2.8-10.8 2.8-6.3 0-11.1-3.8-4.8-3.7-7.1-14.7l-3.8-17q-1.5-7.3-3.5-12.7-1.9-5.4-5.4-8.4-3.5-3.1-10.4-3.1h-18.4l-0.3-2.9z"/><path class="b" d="m1067.7 185.3v3.4q-5.8 0.2-8.7 1.3-3 1.1-4.1 4.1-1 3-1 9.3v84.6q0 6.1 1 9.2 1.1 3.1 4.1 4.1 2.9 1 8.7 1.4v3.4q-3.9-0.4-9.8-0.5-5.9 0-11.8 0-6.7 0-12.5 0-5.8 0.1-9.4 0.5v-3.4q5.8-0.4 8.8-1.4 3-1 4-4.1 1.1-3.1 1.1-9.2v-84.6q0-6.3-1.1-9.3-1-3-4-4.1-3-1.1-8.8-1.3v-3.4q3.6 0.2 9.4 0.4 5.8 0.1 12.5 0.1 6 0 11.8-0.1 5.9-0.2 9.8-0.4z"/><path class="b" d="m1121.8 185.3q30.5 0 45.4 15.3 14.8 15.3 14.8 43.7 0 18.6-7.2 32.5-7.3 13.9-21.1 21.6-13.8 7.7-33.4 7.7-2.6 0-6.8-0.2-4.3-0.2-8.8-0.3-4.5 0-8.3 0-6 0-11.8 0-5.8 0.1-9.3 0.5v-3.4q5.8-0.4 8.7-1.4 3-1 4-4.1 1.1-3.1 1.1-9.2v-84.6q0-6.3-1.1-9.3-1-3-4-4.1-2.9-1.1-8.7-1.3v-3.4q3.5 0.2 9.3 0.5 5.8 0.2 11.5 0 5.9-0.1 13.4-0.3 7.5-0.2 12.3-0.2zm-4.2 3.1q-7.9 0-10.3 2.9-2.4 2.9-2.4 11.8v85.2q0 8.9 2.5 11.8 2.5 2.9 10.3 2.9 18.6 0 28.8-6.7 10.3-6.8 14.4-19.7 4.1-13 4.1-31.6c0-12.4-1.6-23.3-4.6-31.6q-4.5-12.6-14.8-18.8-10.3-6.2-28-6.2z"/><path class="b" d="m1248.7 182.9q11.1 0 17.9 3.4 6.8 3.3 12.8 7.7 2.2 1.7 3.4 1.7 3.2 0 4.3-10.4h3.9q-0.4 6.3-0.5 15.4-0.2 9-0.2 23.9h-3.9q-1.2-7.2-2.9-13.9-1.7-6.6-5.7-11.4-4.9-6.3-12.9-9.8-8-3.5-16.6-3.5-8.5 0-15.4 4.2-6.9 4.2-11.8 12-5 7.9-7.6 18.9-2.7 11-2.7 24.8 0 30.7 9.9 44.9 9.9 14.3 30.7 14.3 6.2-0.1 10.7-1.8 4.5-1.8 7.1-3.5 3.2-2.2 4.1-4.2 0.8-2 0.8-5.2v-16.4q0-7-1.4-10.4-1.3-3.4-5-4.6-3.7-1.2-10.8-1.3v-3.5q3.1 0.2 7.2 0.3 4 0.1 8.6 0.2 4.5 0.1 8.2 0.1 5.7 0 10.2-0.2 4.5-0.2 7.6-0.4v3.5q-3.8 0.1-5.7 1.1-1.8 1.1-2.4 4.1-0.6 3.1-0.6 9.4v33.8h-3.4q-0.2-2.9-1.3-6.3-1.1-3.4-3.3-3.4-1.1 0-2.1 0.5-1 0.5-3.6 2.4-5.6 4.2-11.9 6.7-6.3 2.5-14.7 2.5-17.6 0-30.1-7.3-12.5-7.2-19.2-20.9-6.6-13.6-6.6-32.5 0-20 7.1-34.5 7.2-14.5 19.6-22.4 12.3-7.9 28.2-7.9z"/><path class="b" d="m1389.9 185.3q-0.7 6-0.9 11.6-0.3 5.7-0.3 8.6 0 3 0.2 5.8 0.1 2.9 0.3 4.7h-3.9q-1-10-2.9-15.9-1.9-5.9-6.4-8.4-4.5-2.4-13.6-2.4h-14.1q-5.8 0-8.8 0.9-3 0.9-4 3.9-1 3-1 9.3v84.6q0 6.1 1 9.2 1 3.1 4 4 3 1 8.8 1h12.4q10.8 0 16.3-2.9 5.6-2.9 8-9.5 2.5-6.6 3.7-17.8h3.9q-0.5 4.6-0.5 12.3 0 3.2 0.3 9.3 0.2 6 0.9 12.5-8.7-0.4-19.6-0.4-10.9-0.1-19.4-0.1h-9.7q-5.8 0-12.7 0.1-6.8 0-13.8 0.1-7 0.1-13.3 0.3v-3.4q5.8-0.4 8.8-1.4 3-1 4-4.1 1-3.1 1-9.2v-84.6q0-6.3-1-9.3-1-3-4-4.1-3-1.1-8.8-1.3v-3.4q6.3 0.2 13.3 0.3 7 0.1 13.8 0.2 6.9 0.1 12.7 0h9.7q7.8 0 17.8 0 10-0.1 17.8-0.5zm-29.3 58.4v3.4h-31.2v-3.4zm4.9-22.5q-0.7 9.7-0.6 14.8 0.1 5.1 0.1 9.4 0 4.2 0.2 9.4 0.1 5.1 0.8 14.8h-3.9q-0.7-5.5-1.6-10.7-1-5.2-4.1-8.5-3.2-3.3-10.7-3.3v-3.4q5.7 0 8.6-2.3 3-2.3 4.4-5.9 1.4-3.6 1.9-7.4 0.5-3.9 1-6.9c0 0 3.9 0 3.9 0z"/><path class="b" d="m616.3 329.5q3.6 0.2 9.4 0.3 5.8 0.2 11.4 0.2 8 0 15.4-0.2 7.3-0.1 10.4-0.1 17.9 0 26.9 7.5 9.1 7.5 9.1 19.2 0 6-2.5 11.7-2.5 5.7-8.2 10.4-5.7 4.7-15.3 7.6v0.4q13.5 1.7 21.1 6.3 7.6 4.7 10.7 11 3 6.4 3 13.3 0 9.8-4.8 17.2-4.9 7.4-14.1 11.7-9.2 4.2-22 4.2-3.8 0-11.3-0.2-7.5-0.3-18-0.3-6 0-11.8 0.1-5.8 0.1-9.4 0.4v-3.4q5.8-0.3 8.8-1.4 3-1 4-4 1-3.1 1-9.3v-84.5q0-6.3-1-9.3-1-3-4-4.1-3-1.1-8.8-1.3v-3.4zm42.3 3.4q-7.8 0-10.2 2.9-2.4 2.9-2.4 11.8v84.5q0 6 1 9.1 1 3.1 3.8 4.1 2.7 1 8 1 16.7 0 24.3-7.8 7.6-7.7 7.6-22 0-13.2-7.1-20.3-7.1-7.2-23.3-7.2h-17.6v-2.9h14.7q10.1 0 15.5-3.8 5.5-3.9 7.5-10.3 2.1-6.4 2.1-13.7 0-12.6-5.6-19-5.5-6.4-18.3-6.4z"/><path class="b" d="m819.3 329.5v3.4q-5.8 0.2-8.8 1.7-3 1.6-4 5-1 3.4-1 9.7v51.3q0 12-1.6 20.8-1.5 8.9-5.4 15.4-4.3 7.1-12.5 11.5-8.2 4.3-18.8 4.3-8.1 0-15.6-1.9-7.4-2-13-7.3-5-4.7-7.8-10-2.8-5.3-3.8-13-1-7.7-1-19.3v-53.5q0-6.3-1.1-9.3-1-3-4-4.1-3-1.1-8.8-1.3v-3.4q3.6 0.2 9.4 0.3 5.8 0.2 12.5 0.2 5.9 0 11.8-0.2 5.9-0.1 9.8-0.3v3.4q-5.8 0.2-8.7 1.3-3 1.1-4.1 4.1-1 3-1 9.3v56.4q0 8.7 0.9 16.5 0.8 7.8 3.5 13.6 2.6 5.9 8.1 9.3 5.4 3.3 14.5 3.3 12.9 0 20-5.7 7.1-5.7 9.9-15.8 2.8-10.1 2.8-22.7v-53.2q0-6.3-1.4-9.7-1.5-3.4-4.9-5-3.4-1.5-9.2-1.7v-3.4q3.1 0.2 8.1 0.4 5 0.1 9.3 0.1c2.8 0 5.9 0 8.8-0.1q4.3-0.2 7-0.4z"/><path class="b" d="m867.7 329.5v3.4q-5.8 0.2-8.8 1.3-3 1.1-4 4.1-1 3-1 9.3v84.6q0 6.1 1 9.2 1 3.1 4 4.1 3 1 8.8 1.4v3.4q-3.9-0.4-9.8-0.5-5.9-0.1-11.9-0.1-6.6 0-12.4 0.1-5.8 0.1-9.4 0.5v-3.4q5.8-0.4 8.8-1.4 3-1 4-4.1 1-3.1 1-9.2v-84.6q0-6.3-1-9.3-1-3-4-4.1-3-1.1-8.8-1.3v-3.4q3.6 0.2 9.4 0.3 5.8 0.2 12.4 0.2 6 0 11.9-0.2 5.9-0.1 9.8-0.3z"/><path class="b" d="m918.7 329.5v3.4q-5.8 0.2-8.8 1.3-3 1.1-4 4.1-1 3-1 9.3v84.6q0 6.1 1 9.2 1 3.1 4 4 3 0.9 8.8 0.9h12.4q8.1 0 13.1-1.7 5-1.7 8-5.3 3-3.7 4.5-9.8 1.6-6.2 2.4-15h3.9q-0.5 5.2-0.5 13.9 0 3.3 0.3 9.3 0.2 6.1 0.9 12.6-8.7-0.4-19.6-0.5-10.9 0-19.4 0h-9.7q-5.8 0-12.7 0-6.8 0.1-13.8 0.2-7 0.1-13.3 0.3v-3.4q5.8-0.4 8.8-1.4 3-1 4-4.1 1-3.1 1-9.2v-84.6q0-6.3-1-9.3-1-3-4-4.1-3-1.1-8.8-1.3v-3.4q3.6 0.2 9.4 0.4 5.8 0.1 12.5 0.1 5.9 0 11.8-0.1 5.9-0.2 9.8-0.4z"/><path class="b" d="m1015.2 329.5q30.5 0 45.4 15.3 14.8 15.2 14.8 43.7 0 18.6-7.2 32.5-7.3 13.9-21.1 21.6-13.8 7.6-33.4 7.6-2.6 0-6.8-0.1-4.3-0.2-8.8-0.3-4.5-0.1-8.3-0.1-5.9 0-11.8 0.1-5.8 0.1-9.3 0.5v-3.4q5.8-0.4 8.7-1.4 3-1 4.1-4.1 1-3.1 1-9.2v-84.6q0-6.3-1-9.3-1.1-3-4.1-4.1-2.9-1.1-8.7-1.3v-3.4q3.5 0.2 9.3 0.4 5.8 0.3 11.5 0.1 6-0.2 13.5-0.3 7.5-0.2 12.2-0.2zm-4.2 3.1q-7.9 0-10.3 2.9-2.4 2.9-2.4 11.7v85.3q0 8.9 2.5 11.8 2.5 2.9 10.3 2.9 18.6 0 28.8-6.8 10.3-6.7 14.4-19.7 4.1-12.9 4.1-31.5c0-12.4-1.5-23.3-4.6-31.6q-4.5-12.6-14.8-18.8-10.3-6.2-28-6.2z"/><path class="b" d="m1127.1 329.5v3.4q-5.8 0.2-8.8 1.3-3 1.1-4 4.1-1 3-1 9.3v84.6q0 6.1 1 9.2 1 3.1 4 4.1 3 1 8.8 1.4v3.4q-3.9-0.4-9.8-0.5-5.9-0.1-11.9-0.1-6.6 0-12.4 0.1-5.8 0.1-9.4 0.5v-3.4q5.8-0.4 8.8-1.4 3-1 4-4.1 1-3.1 1-9.2v-84.6q0-6.3-1-9.3-1-3-4-4.1-3-1.1-8.8-1.3v-3.4q3.6 0.2 9.4 0.3 5.8 0.2 12.4 0.2 6 0 11.9-0.2 5.9-0.1 9.8-0.3z"/><path class="b" d="m1241.7 329.5v3.4q-5.8 0.2-8.8 1.7-3 1.6-4 5-1 3.4-1 9.7v101.8h-3.9l-71.7-110.7v90.1q0 6.1 1.2 9.6 1.1 3.5 4.4 5 3.3 1.4 10 1.8v3.4q-3.1-0.4-8.1-0.5-4.9-0.1-9.3-0.1c-3 0-5.8 0.1-8.6 0.1q-4.4 0.1-7.3 0.5v-3.4q5.8-0.4 8.8-1.8 3-1.5 4-5 1-3.5 1-9.6v-82.9q0-6.3-1-9.3-1-3-4-4.1-3-1.1-8.8-1.3v-3.4q2.9 0.2 7.3 0.4 4.3 0.1 8.6 0.1 3.7 0 7.1-0.1 3.4-0.2 6.2-0.4l60.2 92.8v-73q0-6.3-1.1-9.7-1.2-3.4-4.5-5-3.3-1.5-10-1.7v-3.4q3.1 0.2 8.1 0.4 5.1 0.1 9.3 0.1c2.9 0 5.9 0 8.8-0.1q4.4-0.2 7.1-0.4z"/><path class="b" d="m1304 327.1q11 0 17.9 3.3 6.8 3.4 12.8 7.8 2.2 1.7 3.4 1.7 3.2 0 4.2-10.4h3.9q-0.3 6.3-0.5 15.4-0.1 9-0.1 23.8h-4q-1.2-7.1-2.9-13.8-1.7-6.6-5.6-11.4-4.9-6.3-13-9.8-8-3.5-16.5-3.5-8.5 0-15.4 4.2-6.9 4.2-11.9 12-4.9 7.8-7.6 18.8-2.6 11-2.6 24.8 0 30.7 9.9 45 9.9 14.2 30.7 14.2 6.1 0 10.7-1.8 4.5-1.7 7-3.4 3.3-2.3 4.1-4.2 0.9-2 0.9-5.2v-16.4q0-7-1.4-10.4-1.4-3.4-5-4.6-3.7-1.2-10.8-1.4v-3.4q3 0.2 7.1 0.3 4.1 0.1 8.6 0.2 4.5 0 8.3 0 5.6 0 10.1-0.1 4.6-0.2 7.6-0.4v3.4q-3.7 0.2-5.6 1.2-1.9 1.1-2.5 4.1-0.6 3.1-0.6 9.4v33.8h-3.4q-0.2-2.9-1.3-6.3-1.1-3.4-3.3-3.4-1 0-2 0.5-1.1 0.5-3.6 2.4-5.6 4.2-12 6.7-6.3 2.5-14.6 2.5-17.6 0-30.1-7.3-12.6-7.2-19.2-20.9-6.7-13.6-6.7-32.5 0-20 7.2-34.5 7.2-14.5 19.5-22.4 12.4-8 28.3-8z"/><path class="b" d="m672.4 471.3q11.3 0 18.5 3.3 7.3 3.4 12.9 7.8 3.4 2.5 5.2 0.6 1.8-2 2.5-9.3h3.9q-0.4 6.3-0.5 15.3-0.2 9.1-0.2 23.9h-3.9q-1.2-7.3-2.2-11.7-1.1-4.3-2.5-7.4-1.5-3-3.8-6.1-5.3-7-13.3-10.2-8.1-3.1-16.9-3.1-8.4 0-15.1 4.2-6.7 4.1-11.6 12-4.9 7.8-7.5 18.9-2.6 11.1-2.6 24.9c0 9.2 0.9 18 2.8 25.3q2.9 11 8.2 18.5 5.2 7.5 12.2 11.4 7.1 3.8 15.3 3.8 7.7 0 16-3.1 8.4-3 13.1-9.8 3.8-5 5.2-10.8 1.5-5.8 2.7-16.2h3.9q0 15.5 0.2 25 0.1 9.5 0.5 15.9h-3.9q-0.7-7.3-2.3-9.2-1.7-1.8-5.4 0.5-6.3 4.5-13.4 7.8-7.1 3.3-18.1 3.3-16.3 0-28.4-7.3-12.2-7.3-19-21.1-6.7-13.9-6.7-33.3c0-13 2.3-23.9 7-33.4q7-14.4 19.2-22.4 12.2-8 28-8z"/><path class="b" d="m782.9 471.3q16.2 0 28.4 7.3 12.2 7.4 19 21.1 6.7 13.7 6.7 33.3c0 13.1-2.3 23.9-6.9 33.5q-6.9 14.3-19.2 22.3-12.3 8-28.1 8c-10.6 0-20.3-2.4-28.4-7.3q-12.2-7.4-19-21.2-6.7-13.8-6.7-33.2c0-13 2.3-23.9 7-33.5q7-14.3 19.2-22.3 12.2-8 28-8zm-0.6 3.1q-11.1 0-19.3 7.6-8.2 7.7-12.7 21.2-4.5 13.4-4.5 31.2c0 11.8 1.6 22.5 5 31.5q5 13.3 13.6 20.6 8.6 7.2 19 7.2 11.1 0 19.3-7.6 8.2-7.7 12.7-21.3 4.5-13.5 4.5-31.1c0-11.7-1.6-22.7-5-31.5q-5-13.3-13.5-20.6-8.6-7.2-19.1-7.2z"/><path class="b" d="m952.1 473.7v3.4q-5.8 0.2-8.8 1.7-2.9 1.5-4 5-1 3.4-1 9.7v101.8h-3.9l-71.6-110.7v90.1q0 6.1 1.1 9.6 1.1 3.5 4.4 5 3.3 1.4 10 1.7v3.5q-3.1-0.4-8-0.5-5-0.1-9.4-0.1c-3 0-5.7 0.1-8.6 0.1q-4.4 0.1-7.3 0.5v-3.5q5.8-0.3 8.8-1.7 3-1.5 4-5 1-3.5 1-9.6v-82.9q0-6.3-1-9.3-1-3-4-4.1-3-1.1-8.8-1.3v-3.4q2.9 0.2 7.3 0.3 4.3 0.2 8.6 0.2 3.7 0 7.1-0.2 3.4-0.1 6.2-0.3l60.2 92.8v-73q0-6.3-1.1-9.7-1.1-3.4-4.5-5-3.3-1.5-9.9-1.7v-3.4q3 0.2 8.1 0.4 5 0.1 9.3 0.1c2.8 0 5.8 0 8.7-0.1q4.4-0.2 7.1-0.4z"/><path class="b" d="m1052.4 473.7q-0.7 6.5-0.9 12.5-0.3 6.1-0.3 9.3 0 4.1 0.2 7.7 0.1 3.6 0.3 6.3h-3.9q-1.2-11.9-3.3-18.8-2-6.9-7.1-10-5.1-3.1-15.9-3.1h-9.2v97q0 6.9 1.3 10.3 1.3 3.4 5 4.6 3.8 1.2 10.9 1.5v3.4q-4.4-0.3-11.2-0.4-6.8-0.1-13.8-0.1-7.7 0-14.4 0.1-6.8 0.1-10.9 0.4v-3.4q7.2-0.3 10.9-1.5 3.8-1.2 5.1-4.6 1.3-3.4 1.3-10.3v-97h-9.3q-10.5 0-15.7 3.1-5.2 3-7.3 10-2 6.9-3.2 18.8h-3.9q0.3-2.7 0.4-6.3 0.1-3.6 0.1-7.7 0-3.2-0.3-9.3-0.2-6-0.9-12.5 7.1 0.2 15.6 0.3 8.4 0.2 16.9 0.2h31q8.4 0 17-0.2 8.5-0.1 15.5-0.3z"/><path class="b" d="m1057.7 473.7q3.6 0.2 9.4 0.3 5.7 0.2 11.4 0.2 8 0 15.3-0.2 7.4-0.1 10.4-0.1 13.9 0 23 3.9 9.1 3.9 13.6 10.6 4.5 6.8 4.5 15.1 0 5.1-2 10.9-2 5.8-7.1 11-5 5.1-13.7 8.4-8.7 3.3-22 3.3h-16.4v-3.4h14.7q12.1 0 18.5-3.8 6.4-3.9 8.7-10.2 2.3-6.4 2.3-14.3 0-13.5-6.4-20.9-6.4-7.4-21.9-7.4-7.9 0-10.3 2.9-2.3 2.9-2.3 11.8v84.6q0 6.1 1 9.2 1 3 4 4.1 3 1 8.8 1.3v3.4q-4-0.3-9.8-0.4-5.9-0.1-11.9-0.1-6.7 0-12.4 0.1-5.8 0.1-9.4 0.4v-3.4q5.8-0.3 8.8-1.3 2.9-1.1 4-4.1 1-3.1 1-9.2v-84.6q0-6.3-1-9.3-1.1-3-4-4.1-3-1.1-8.8-1.3c0 0 0-3.4 0-3.4zm27.1 60.5q9.2 0.4 14.5 0.8 5.3 0.4 8.6 0.8 3.3 0.3 6.4 0.8 11.4 1.9 16.5 6.9 5 5.1 7.4 15.6l4.2 17.4q1.7 7.5 3.5 10.9 1.8 3.3 5.6 3.1 2.9-0.1 4.8-1.9 2-1.7 4.2-4.6l2.6 1.9q-3.6 5.3-7.4 8.1-3.9 2.8-10.9 2.8-6.3 0-11.1-3.7-4.7-3.8-7.1-14.7l-3.8-17q-1.5-7.4-3.5-12.8-1.9-5.3-5.4-8.4-3.5-3.1-10.3-3.1h-18.5c0 0-0.3-2.9-0.3-2.9z"/><path class="b" d="m1209.3 472.8l41.6 107.3q2.6 6.5 5.8 8.6 3.2 2.2 6 2.3v3.4q-3.4-0.3-8.4-0.4-4.9-0.1-9.9-0.1-6.6 0-12.4 0.1-5.8 0.1-9.4 0.4v-3.4q8.7-0.3 11.1-3 2.4-2.6-1-11.3l-31.8-84.8 2.8-2.2-29.7 77.1q-2.7 6.8-3.2 11.5-0.5 4.7 0.9 7.4 1.4 2.8 5 3.9 3.5 1.2 8.7 1.4v3.4q-4.7-0.3-9.9-0.4-5.2-0.1-9.7-0.1c-2.9 0-5.2 0-7.2 0.1q-3 0.1-5.6 0.4v-3.4q3.4-0.8 7-4 3.6-3.1 6.5-10.8l40.1-103.4h2.7zm20.8 72.5v3.4h-50.8l1.7-3.4z"/><path class="b" d="m1316.4 471.3q11.3 0 18.5 3.3 7.2 3.4 12.9 7.8 3.4 2.5 5.2 0.6 1.8-2 2.5-9.3h3.9q-0.4 6.3-0.5 15.3-0.2 9.1-0.2 23.9h-3.9q-1.2-7.3-2.2-11.7-1.1-4.3-2.5-7.4-1.5-3-3.9-6.1-5.3-7-13.3-10.2-8-3.1-16.8-3.1-8.4 0-15.1 4.2-6.8 4.1-11.6 12-4.9 7.8-7.5 18.9-2.7 11.1-2.7 24.9c0 9.2 1 18 2.9 25.3q2.9 11 8.1 18.5 5.2 7.5 12.3 11.4 7.1 3.8 15.3 3.8 7.6 0 16-3.1 8.4-3 13.1-9.8 3.8-5 5.2-10.8 1.5-5.8 2.7-16.2h3.9q0 15.5 0.2 25 0.1 9.5 0.5 15.9h-3.9q-0.7-7.3-2.3-9.2-1.7-1.8-5.4 0.5-6.3 4.5-13.4 7.8-7.1 3.3-18.2 3.3-16.2 0-28.4-7.3-12.2-7.3-18.9-21.1-6.7-13.9-6.7-33.3c0-13 2.3-23.9 7-33.4q6.9-14.4 19.1-22.4 12.2-8 28.1-8z"/><path class="b" d="m1464.6 473.7q-0.7 6.5-0.9 12.5-0.3 6.1-0.3 9.3 0 4.1 0.2 7.7 0.1 3.6 0.3 6.3h-3.9q-1.2-11.9-3.3-18.8-2-6.9-7.1-10-5.1-3.1-15.9-3.1h-9.2v97q0 6.9 1.3 10.3 1.3 3.4 5 4.6 3.8 1.2 10.9 1.5v3.4q-4.4-0.3-11.2-0.4-6.8-0.1-13.8-0.1-7.7 0-14.4 0.1-6.8 0.1-10.9 0.4v-3.4q7.2-0.3 10.9-1.5 3.8-1.2 5.1-4.6 1.3-3.4 1.3-10.3v-97h-9.3q-10.5 0-15.7 3.1-5.2 3-7.3 10-2 6.9-3.2 18.8h-3.9q0.3-2.7 0.4-6.3 0.1-3.6 0.1-7.7 0-3.2-0.3-9.3-0.2-6-0.9-12.5 7.1 0.2 15.6 0.3 8.4 0.2 16.9 0.2h31q8.4 0 17-0.2 8.5-0.1 15.5-0.3z"/><path class="b" d="m1513.4 473.7v3.4q-5.8 0.2-8.8 1.3-3 1.1-4 4.1-1 3-1 9.3v84.6q0 6.1 1 9.2 1 3 4 4.1 3 1 8.8 1.3v3.4q-3.9-0.3-9.8-0.4-5.9-0.1-11.9-0.1-6.6 0-12.4 0.1-5.8 0.1-9.4 0.4v-3.4q5.8-0.3 8.8-1.3 3-1.1 4-4.1 1-3.1 1-9.2v-84.6q0-6.3-1-9.3-1-3-4-4.1-3-1.1-8.8-1.3v-3.4q3.6 0.2 9.4 0.3 5.8 0.2 12.4 0.2 6 0 11.9-0.2 5.9-0.1 9.8-0.3z"/><path class="b" d="m1628 473.7v3.4q-5.8 0.2-8.8 1.7-3 1.5-4 5-1 3.4-1 9.7v101.8h-3.9l-71.7-110.7v90.1q0 6.1 1.1 9.6 1.1 3.5 4.5 5 3.3 1.4 9.9 1.7v3.5q-3-0.4-8-0.5-4.9-0.1-9.4-0.1c-2.9 0-5.7 0.1-8.6 0.1q-4.3 0.1-7.2 0.5v-3.5q5.8-0.3 8.8-1.7 2.9-1.5 4-5 1-3.5 1-9.6v-82.9q0-6.3-1-9.3-1.1-3-4-4.1-3-1.1-8.8-1.3v-3.4q2.9 0.2 7.2 0.3 4.4 0.2 8.6 0.2 3.8 0 7.2-0.2 3.4-0.1 6.1-0.3l60.2 92.8v-73q0-6.3-1.1-9.7-1.1-3.4-4.4-5-3.3-1.5-10-1.7v-3.4q3.1 0.2 8.1 0.4 5 0.1 9.3 0.1c2.8 0 5.9 0 8.8-0.1q4.3-0.2 7.1-0.4z"/><path class="b" d="m1690.2 471.3q11.1 0 17.9 3.3 6.9 3.4 12.8 7.8 2.3 1.7 3.4 1.7 3.3 0 4.3-10.4h3.9q-0.3 6.3-0.5 15.3-0.2 9.1-0.2 23.9h-3.9q-1.2-7.1-2.9-13.8-1.7-6.6-5.6-11.4-5-6.3-13-9.8-8-3.5-16.5-3.5-8.5 0-15.4 4.2-6.9 4.1-11.9 12-4.9 7.8-7.6 18.8-2.6 11-2.6 24.8 0 30.7 9.9 45 9.9 14.2 30.7 14.2 6.1 0 10.6-1.8 4.5-1.8 7.1-3.5 3.2-2.2 4.1-4.1 0.9-2 0.8-5.2v-16.4q0-7-1.3-10.4-1.4-3.4-5-4.6-3.7-1.2-10.9-1.4v-3.4q3.1 0.2 7.2 0.3 4.1 0.1 8.6 0.1 4.5 0.1 8.3 0.1 5.6 0 10.1-0.1 4.5-0.2 7.6-0.4v3.4q-3.7 0.2-5.6 1.2-1.9 1-2.5 4.1-0.6 3.1-0.6 9.4v33.8h-3.4q-0.2-2.9-1.3-6.4-1.1-3.4-3.3-3.4-1 0-2.1 0.5-1 0.6-3.5 2.4-5.7 4.3-12 6.8-6.3 2.4-14.7 2.4-17.5 0-30-7.2-12.6-7.3-19.2-20.9-6.7-13.6-6.7-32.6 0-19.9 7.2-34.4 7.1-14.5 19.5-22.4 12.4-8 28.2-8z"/><path fill-rule="evenodd" class="a" d="m276 138.4c0.5 0 1.1 0.7 2.3 2.5 1.2 1.7 5.1 7.2 6.6 9.5 1.6 2.2 1.2 2.4 1.1 4-0.1 0.3-0.2 0.9-0.2 1.5 0.2-0.6 0.6-1.2 1.3-1.8 1.9-1.7 4.3-2.5 4.9-5.4 0.7-3-1-5.8-1-5.8 0 0 3.9 2.8 3.8 7.8-0.2 3.6-1.5 6.5-2.8 8.6 1.4-1.5 3.6-3.3 6.5-3.6 2.8-0.2 4.7 0.4 6.3 1 1.4 0.5 2.8 1 4.5 1 3.7 0 7.4-2.8 7.4-2.8 0 0 0.6 3.2-3.3 6.2-3.3 2.5-7 1.1-11.3 3.2-1.7 0.7-3 2-3.7 2.9 1.2-0.4 8.3-2.3 14.3 0.3 8.7 3.8 11.7 14.8 11.7 14.8 0 0-4.1-6.4-11.8-7.7-4-0.7-6.9 0.7-7.9 1.3 0 0 0 0 0 0.1 0.8-0.1 5.7-0.6 11.7 2.3 5.9 2.7 8.5 8.4 10 12.6 1.5 4.3 1.1 8 1.1 8 0 0-1.2-7.5-8.2-11.3-5.6-2.9-9.5-2.1-10.9-1.6 0.9 0 7.5 0.3 12.9 7.5 5.9 7.8 5.7 18.4 5.7 18.4 0 0-1.3-5.7-5.4-9.8-3.8-3.8-9-3.4-10.3-3.3 1.1 0.4 7.9 2.9 12.2 9.6 3.8 5.8 4.3 13 2.8 18.5q-0.3 0.9-0.7 1.8c1.4 4 2 8 0.9 11.8-0.6 1.8-1.5 3.4-2.6 4.9 4.5 5.6 9.7 10.3 14.1 13.6 7.3 5.4 10.9 6.1 20 10.8 7.2 3.8 13.1 9 16.9 15.8 2.4 2.8 5.1 5.4 9.8 4.2 6.8-1.9 5.4-12.8 1.7-22.4-3.8-9.5-9.2-16.1-15.2-16.5-5.2-0.4-7.2 10-7.2 10 0 0-5.3-10.7 2.3-15 1.5-0.8 2.9-1.1 4.2-1.2-2.9-3.9-9.4-12.4-15.6-20.3-8.3-10.7-25.5-26.8-23.6-44.6 1.7-16.4 17-20.9 28.3-13.4 11.3 7.7 19.2 21 19.5 28.4 0.2 7.4-2.7 7.9-2.8 13-0.1 4.1 0.9 5.3 0.9 5.3 0 0-4.1-4.5-4.2-10.8-0.1-6.2 0.3-6.8-0.5-8.7-0.8-1.9-2.9-3.2-2.9-3.2 0 0 2.3 2.9 2.2 6.8-0.2 4-2.5 8.7-0.1 14.4 2.4 5.7 5.6 7.3 5.6 7.3 0 0-8.6-0.5-14-9.5-6-9.9-3.4-15.5-3.4-15.5 0 0-3.1 3.2-2.7 8.6 0.3 4.8 3.2 8.5 3.2 8.5 0 0-5.8-3.5-7.3-9.8-1.5-6.4 1.4-12.8 2.3-18 1-5.2-0.1-11.2-4.2-13.6-3.9-2.4-11.5-2.4-14.6 8.4-3.1 10.9 5.9 22.5 10.7 29.3 4.8 6.7 10.8 13.1 15.5 19 2.5 3.3 6.7 8.9 9.9 13.3q-0.4-1.4-0.5-2.8c-0.3-2.7 1-4.2 1.1-6.3 0.3-3.2-1.4-6.7-1.4-6.7 0 0 4.5 3.7 5.8 9.4 1.2 5.7 0.2 7.6 0.9 10.5 0.6 3 3.8 6 3.8 6 0 0-1.7-2.9-1.9-5.4-0.2-2.6 0.4-4.6 0.4-6.1-0.2-4.7-1.5-7.2-1.5-7.2 0 0 4.5 4.3 5.7 8.2 2.6 7.9 0.1 12.9 1.7 16.7 1.7 3.8 6.9 15 7.9 22.6 0.9 7.6-0.7 15.2-6.9 18.2-4.2 2-7.2 1.3-9.1 0.4 0.9 9.1-1.9 20.2-7.3 28.1-6.6 9.8-12.6 17.1-13.3 23.2-0.8 6.1 3.1 10.8 7.7 14.4 4.5 3.7 7.6 4.5 11.1 5.2 3.5 0.8 3.2 1.6 4.4 4.9 1.1 3.4 0.3 5.3-5.2 13.7-5.5 8.4-11.1 14.1-14.3 20-3.2 5.9-0.3 8.3 3.5 9 3.8 0.8 8.7-5.1 8.7-5.1 0 0-5.4 9-9.3 9.4-3.8 0.3-5.3-2.1-5.3-2.1 0 0-0.5 2 1.5 3.1 2 1 4.4 1 4.4 1 0 0-2.2 1.6-5.1 1.3-2.8-0.2-3.4-1-4.4-1.7 0.3 1.4 0.8 3.6 1 5 0.4 2.3 0.6 5.7 0.4 6.1-0.2 0.5-3 1.4-6.4 3.1-3.4 1.6-8.3 4.3-8.6 4.2-0.4-0.2 0.3-4.7 0.7-8 0.3-2.5 1-5.9 1.3-7.4-1.3-0.3-2.9-0.9-3.2-1.5-0.3-0.8 0.9-3.5 1.5-5.1 1.1-2.5 6.6-10 11.3-18.2 4.8-8.2 12-19.2 11.8-21.8-0.3-2.6-7-3.7-14.2-6-7.1-2.3-16.4-7-24.1-14.1-1.8-1.8-3.1-3.4-4-5 0.6 2 1.5 4.6 2.9 6.9 1.6 2.8 5.3 7.5 7.8 10.2 2.6 2.7 3.1 4.3 2.8 8.2-0.3 4-1.9 5.9-6.4 8.6-4.5 2.7-10.2 6.3-14.9 9.5-4.6 3.2-5.8 7.4-3.4 11.1 2.3 3.7 8.6 1.6 8.6 1.6 0 0-3.7 5.4-8.7 4.8-4.9-0.6-5.7-4.4-5.7-4.4 0 0-0.8 1.2-0.4 2.8 0.4 2.3 2.2 3 2.2 3 0 0-3 0.2-5.5-1.3-2.2-1.2-2.3-3.2-2.3-3.8-0.5 1.2-1.2 3.2-1.4 5-0.4 3.8 0.1 5-0.4 5.7-0.4 0.8-3.3 1.9-6.2 3.2-2.9 1.3-9.3 4.8-9.7 4.6-0.1 0 0-0.9 0.4-2.1-1.8 0.8-4.4 1.8-4.7 1.7-0.3-0.2 1.5-5.9 2.6-9.8 1-3.9 4.1-9.7 4.1-9.7-0.6-0.9 2.8-2.7 7-6 4.2-3.4 15.9-11.6 22.4-17.8 6.4-6.2 4.2-7.9 2.9-9.7-5.2-7.7-11.8-12.4-18.8-24.8-6.9-12.4 6.9-20.8 14.5-27.7 5.7-5.2 15-13.5 19.2-17.3-1.3-8.7-10-11.5-18.7-14.4-10-3.2-14.3-0.8-22.2-3.1-7.8-2.2-6.6-6.3-7.7-5.2-1.2 0.9-5.5 1.6-8.8 0.8-3.4-0.7-7.5-2.6-14.9-5.2-7.3-2.7-15.2-5.9-17.8-6.3-1.4-0.2-2.4 0.9-4.7 1.9-2.2 0.9-3.1 0.5-3.9 1.7-0.7 1.1-2.5 8.5-3.3 14.6-0.7 6.1 0.7 10.6 5.8 12.4 5.1 1.9 9.3-8.3 9.3-8.3 0 0 1.4 4.9-1.5 9.5-2.8 4.6-7.3 4.6-7.3 4.6 0 0 0.2 1.1 1.7 1.5 1.6 0.5 4.9-0.1 4.9-0.1 0 0-2.5 2.7-6.4 2.9-3.9 0.3-5.1-1.1-5.1-1.1 0 0-0.1 0.1-0.1 0.1 1.8 2.3 4.8 6.3 5.2 6.6 0.4 0.5-2.8 3.7-5.4 7.5-2.6 3.7-4.5 8.8-4.9 8.7-0.3-0.1-0.7-2.3-1.3-4.8-0.8 2.1-2.8 5.8-3.2 5.9-0.3 0.1-0.7-3.2-1.5-8-0.6-4-1-8.2-1.1-9.6-1.2-2.4-0.5-7.9 0.2-13.1 0.9-7.7 2.6-11.3 4.5-23.6 1.7-12.2 1.8-14 1.9-16.7 0.1-2.7 0.7-3.2 1.7-4 0.9-0.7 2.9-2.2 5.1-3.6 2.1-1.5 3.4-1.3 4.6-0.7 1.2 0.5 1.8 0.6 5.9 1.5 3.7 0.8 10.8 1.1 16.8 1.4-3.1-3.8-6.2-7.6-7.8-9.6-4.2-5.1-7.4-10.3-8.8-11.1-0.8-0.5-1.5-0.1-2.4 0.3-0.7 0.2-1.5 0.5-2.6 0.4-2.3-0.2-2.2-1.4-4.4-1.9-2.1-0.4-13 3.8-16.4 5.7-3.5 1.8-5.8 3.6-4.7 6.8 1.6 4.4 7.5 3.5 7.5 3.5 0 0-3.8 3.4-7.7 1.9-5-2-4.1-7.6-4.1-7.6 0 0-1.1 1.2-0.9 3.4 0 1.5 1.5 4 1.5 4 0 0-3.2-1-4.7-3.6-1.6-2.5-0.5-6.2-0.5-6.2 0 0-2.8 7.2-3.7 7.5-0.8 0.3-2.2-0.7-5.6-1.5-3.3-0.8-9-1.7-9.2-2.3 0-0.4 0.9-1.2 2.3-2.4-1-0.2-2.9-0.6-3.1-1.2-0.1-0.7 1.8-2.2 4.1-4.4 2-1.7 5-4 6-4.7v-0.2c0.2-0.7 3.9-2.6 3.9-2.6 3.9-2.7 8.6-1.2 15.1-1 6.6 0.2 16.9-3.8 18.5-4.6 1.7-0.7 2.2-2 2.9-2.5 0.7-0.5 3.8-0.3 6.7 0.3 2.9 0.5 2.7 1.5 3.7 2.2 1 0.8 4.6 2.9 8.6 4.8 4 1.9 13.8 6.1 13.9 6.2 1.1-4.1 2.9-7.8 5.2-13.6 2.9-7.7 2.9-10.4 3.9-18.8 1.1-8.4-0.7-10.5-0.7-10.5 0 0-3.1-1.7-7.1-1.1-2.7 0.4-5.1 4.5-6.6 7.8 0.5 0.2 1.3 0.6 2.8 1.3 2.8 1.3 5 3.1 5.6 5.3 0.5 2.5-0.6 3.8-0.6 3.8 0 0 0-0.9-0.7-1.6-0.7-0.7-1.4-0.6-1.4-0.6 0 0 1 1.2 1.2 2.5 0.2 1.3-0.2 3.1 0.8 5.3 1 2.2 3.5 3.1 3.5 3.1 0 0-3.4 1.6-7.3-1.3-3.4-2.4-2.6-8.6-3-8.6-0.2 0 0.2 2.7-0.5 4.4-0.8 1.7-2 2.4-2 2.4 0 0 0.9-3.5 0.4-6.1-0.5-2.5-2.6-3.6-2.6-3.6l0.2-0.3c-0.9 0.5-1.9 0.6-3.2 0.9-2.6 0.5-3.9-0.4-4.2-0.7-0.2-0.3 2.9-2.1 4.3-3.9 1.3-1.7 1.9-3.8 1.6-5.1-0.2-1.3-2.1-0.2-4.4 0.4-2.2 0.6-1.7 1.2-2.7 3.5-0.8 2.3-1.8 4.3-2.8 4.4-0.6 0.1-2.1-1.3-3.1-3.4-0.9-2.1-0.2-4-0.1-5.3 0.1-1.3-0.1-2.9-0.3-4.3-0.1-1.3 0.4-1.6 1.4-2.7 1.1-1.1 4.3-2.7 5.8-4.2 1.6-1.5 2.6-4.3 4.3-7.8 1.4-3 3.4-6 4-6.9-2.2 0.1-5.6-0.1-8.4-1.9-4.1-2.7-4.5-7.1-4.5-7.1 0 0 1.7 4.3 7.5 3.9 3.9-0.3 5.7-3.8 7.9-5.2 2.7-1.7 3.7-1.6 3.7-1.6-1.1-0.4-2.4-1-2.8-1.4 0 0-0.7 0-1.4-0.1-0.9-0.1-4.5-0.9-5.7-1.8 0 0-1.7-0.1-4.4-1.3-2.7-1.2-3.7-1.9-4.6-2.6 0 0-0.1-0.1-0.2-0.2v0.1c0 0-1.8-0.4-3.8-1.4-2.1-0.9-3.7-2.1-4-2.3 0 0-1.7-0.4-2.7-0.9-1-0.5-2.4-1.3-3-2q-0.2-0.1-0.2-0.2c-0.7-0.1-3.5-1.6-6.5-3.1-3-1.5-4.8-3-4.6-3.3 0.2-0.4 2.3 0.2 4 0.7 1.7 0.5 3.1 1 3.1 1 0 0 0.1 0.1 0.4 0.3-0.2-0.2-0.3-0.3-0.3-0.3 0 0 2.3 0.2 3.9 0.8 1.6 0.6 2.4 1.2 2.4 1.2 0 0 0.3-0.1 0.9 0 0.6 0 2.3 0.4 3.4 0.8 1.1 0.4 1.5 0.5 2.1 0.9 0.1 0 0.2 0.1 0.4 0.2 0 0 0-0.1 0-0.1 0.3-0.1 2.6 0.5 4.3 0.9 1.4 0.2 3 0.8 3.7 1.1 0.4 0.1 0.6 0.4 0.8 0.5 0-0.1 0.1-0.2 0.3-0.1 1 0.1 3.3 0.9 4.9 1.5 2.1 0.7 2.8 0.9 3.4 1.3q0.2 0.2 0.5 0.7c-0.2-0.4-0.3-0.6-0.2-0.7 0.3-0.1 2.5 0.4 3.8 0.8 1.5 0.5 2.6 1.2 3.1 1.5 0.3 0.2 0.4 0.4 0.5 0.6 0-0.2 0-0.3 0.1-0.3 0.4-0.4 3.4 1.3 5.3 1.9q0.4 0.1 0.8 0.2l-0.3-0.2c0 0-1.3-4.1-1.9-6.8-0.7-2.7-1.3-6.9-0.8-7.1 0.5-0.3 2.5 2.3 3.4 3.2 0.7 0.8 1.5 1.5 2 2v-0.1c0-1.3-0.2-3.1-0.3-4.8 0-0.1 0-0.8 0-1-0.1-1.8-0.1-3.2 0.2-3.2zm-42.8 9q0 0 0 0 0 0 0 0zm21.6 57.5q0.1 0 0 0 0 0 0 0zm0 0c0 0-0.8-0.6-2.4 1.1-2.5 2.7-0.8 7.7-3.5 12.1-2.6 4.1-6.8 5-9.8 2-3.4-3.3-1.3-8.8-1.3-8.8 0 0-0.2 4.5 4.5 6 2.8 0.9 6.1-1.6 6.8-6.3 0.6-4.1 2-6.5 3.6-7q0.4-0.1 0.6 0c1.2 0 1.5 0.9 1.5 0.9z"/><path class="a" d="m237.7 25.2c-3.5 7.1 3.8 15 10.5 10.9 1.6 2.3 3.6 4.2 5.6 6-1.2 1.2-0.9 3.8 0.5 4.8 0.8 0.6 2.3 0.5 2.7 1.2 0.5 1.1-1.6 1.6-1.1 3.8 0.1 0.5 0.5 0.9 0.8 1.2 0.2 0.2 1.1 0.5 1 1.2-0.1 0.5-0.7 0.4-1.4 1-0.4 0.3-1 1.2-1.1 1.5-1.2 3.7 2.1 4.5 4.8 5.2 1.6 0.4 3.7 0.8 5.7 1.1 9.3 1.2 19.1 1.6 29 1.1 8.4-0.4 17.2-0.3 24.6-2.2 2.8-0.7 5.1-1.6 5-4.2-0.1-2-3-2.9-2.7-4.2 0.1-0.6 1.6-0.8 1.8-1.9 0.5-2.4-1-2.2-1.1-3.8 2.4-0.5 4.2-1.7 3.8-4.4-0.1-0.3-0.8-1.1-0.7-1.4 0-0.1 1-1.1 1.4-1.4 1.9-1.7 3-3 4.4-4.8 6.8 4.7 14.4-4.1 10.5-11 1.1-0.1 1.8-0.6 2.1-1.3 1.4-3.9-4.4-5.3-4.8-1.4-6.9-4.3-14 4.2-10.4 10.9-2.5 0.9-6.8 4.8-10.3 3.2-2.2-0.9-2.3-4.3-2.1-7.6 5.1 0.5 6.8-7.2 3.3-10.1 0.5-0.7 0.9-1 0.8-2.1-0.1-3-5.2-2.8-4.2 1.1-4.5-0.3-6.5 6.1-3.7 9.3-2.7 3.2-5.8 6.8-11.5 6.1-5.8-0.6-7.1-6.5-8-12.8 5.3-1.9 5.3-10.9 0.9-14-0.6-0.4-1.3-0.5-2-1.1 0.3-0.7 0.5-1.1 0.5-2-0.2-1.7-1.3-2.4-2.5-2.4-1.9 0-4.1 1.9-2.3 4.6-5.6 1-7.1 9.7-3.2 13.6 0.6 0.6 1.4 0.8 2 1.6-0.9 7.1-3 13.3-10.5 12.6-4.1-0.4-6.7-3.2-8.8-6.1 3-3.1 0.8-9.5-3.4-9.5 0.6-5.6-7-2.4-3.5 1.2-3.7 2.4-2 10.3 2.8 10 0.4 3.4 0.1 6.7-2 7.7-3.4 1.5-7.6-2.1-10-3.2 3.6-7.8-4-15-10.7-11 0-1.1-0.5-1.8-1.2-2.1-3.6-1.5-4.9 4.6-1.3 5.1z"/><path class="b" d="m1774.3 558.6q3.7 0 7 1.4 3.2 1.4 5.7 3.8 2.5 2.5 3.8 5.7 1.4 3.3 1.4 7 0 3.7-1.4 7-1.3 3.2-3.8 5.7-2.5 2.5-5.7 3.9-3.3 1.3-7 1.3-3.7 0-7-1.3-3.2-1.4-5.7-3.9-2.5-2.5-3.8-5.7-1.4-3.3-1.4-7 0-3.7 1.4-7 1.3-3.2 3.8-5.7 2.5-2.5 5.7-3.8 3.3-1.4 7-1.4zm0 2q-4.2 0.1-7.7 2.2-3.4 2.2-5.5 5.7-2 3.6-2 8c0 2.9 0.7 5.5 2 7.9q2.1 3.7 5.5 5.8 3.5 2.2 7.7 2.2 4.2 0 7.7-2.2 3.5-2.1 5.5-5.8 2-3.6 2-7.9c0-2.9-0.7-5.6-2-8q-2-3.5-5.5-5.7-3.5-2.1-7.7-2.2zm0.6 4.8q3.6 0 5.5 1.3 1.9 1.3 1.9 3.8 0 1.3-0.7 2.5-0.7 1.3-2.6 2.1-1.9 0.9-5.6 1.1l-3.8 0.2v-1h3.4q3.4 0 4.4-1.3 1-1.2 1-3 0-2.4-1-3.6-1-1.1-3.5-1.1-1.6 0-2 0.4-0.5 0.4-0.5 1.7v14.4q0 1.5 0.3 1.8 0.3 0.4 1.2 0.5v1q-0.6 0-1.5 0-0.9-0.1-1.8-0.1-1 0-1.9 0.1-0.8 0-1.4 0v-1q0.9-0.1 1.2-0.5 0.3-0.4 0.3-1.8v-14.1q0-1.5-0.3-2-0.3-0.4-1.2-0.4v-1q0.6 0.1 1.4 0.1h1.7q1.8 0 3.3-0.1 1.5 0 2.2 0zm-5 10q2.2 0 3.1 0.1 0.9 0 1.4 0.1 0.5 0.1 1.2 0.3 3 0.2 4.1 1.1 1.2 1 1.5 2.6l0.8 3.7q0.1 0.8 0.3 1.5 0.2 0.6 0.8 0.6 0.5 0 0.8-0.5l0.6 0.5q-0.4 0.7-1 1-0.7 0.3-1.8 0.3-1.7 0-2.5-0.6-0.7-0.7-1-2l-1.1-4.8q-0.3-1.2-0.8-1.9-0.6-0.6-2-0.8-1.4-0.2-4.3-0.2l-0.1-1z"/></svg>