<?xml version="1.0" encoding="UTF-8"?>
<svg id="Layer_1" data-name="Layer 1" xmlns="http://www.w3.org/2000/svg" viewBox="0 0 1920 1080">
  <defs>
    <style>
      .cls-1, .cls-2 {
        fill: #c09949;
      }

      .cls-2 {
        fill-rule: evenodd;
      }

      .cls-3 {
        fill: #010101;
      }
    </style>
  </defs>
  <path class="cls-1" d="m630.88,246.09H63.86c0,15.62,12.66,28.29,28.29,28.29h26.1c9.38,0,16.98,7.6,16.98,16.98v474.77c0,20.2,10.56,38.93,27.85,49.39l168.22,101.74v-293.23l-81.32-48.99v220.72c0,8.54-6.14,16.18-14.61,17.21-10.17,1.24-18.82-6.64-18.82-16.59v-506.57c0-.5.02-.99.06-1.48.7-8.03,7.86-13.96,15.92-13.96h235.47c8.06,0,15.22,5.94,15.92,13.96.04.49.06.98.06,1.48v505.94c0,8.54-6.14,16.18-14.61,17.21-10.17,1.24-18.82-6.64-18.82-16.59v-221.34l-81.32,48.99v293.23l168.22-101.74c17.29-10.45,27.85-29.19,27.85-49.39v-474.77c0-9.38,7.6-16.98,16.98-16.98h20.32c15.62,0,28.29-12.66,28.29-28.29h0Z"/>
  <path class="cls-3" d="m722.8,348.33v3.41c-3.87.12-6.8.54-8.78,1.28-1.99.74-3.33,2.1-4.01,4.09-.68,1.99-1.02,5.09-1.02,9.3v84.59c0,4.09.34,7.16,1.02,9.21.68,2.05,2.02,3.38,4.01,4.01,1.99.63,4.92.94,8.78.94h12.45c5.34,0,9.69-.57,13.05-1.7,3.35-1.14,6.02-2.93,8.02-5.37,1.99-2.44,3.49-5.71,4.52-9.81,1.03-4.09,1.82-9.09,2.39-15.01h3.92c-.34,3.53-.51,8.19-.51,13.99,0,2.16.09,5.26.26,9.3.17,4.04.48,8.21.94,12.53-5.8-.23-12.34-.37-19.61-.43-7.28-.06-13.76-.09-19.44-.09h-9.63c-3.92,0-8.16.03-12.71.09-4.55.06-9.15.11-13.81.17-4.66.06-9.1.14-13.3.26v-3.41c3.86-.23,6.79-.68,8.78-1.37,1.99-.68,3.33-2.05,4.01-4.09.68-2.05,1.02-5.12,1.02-9.21v-84.59c0-4.2-.34-7.3-1.02-9.3-.68-1.99-2.02-3.35-4.01-4.09-1.99-.74-4.92-1.16-8.78-1.28v-3.41c2.39.12,5.51.23,9.38.34,3.86.12,8.01.17,12.45.17,3.98,0,7.93-.06,11.85-.17,3.92-.11,7.19-.23,9.81-.34Z"/>
  <path class="cls-3" d="m877.32,348.33v3.41c-3.87.12-6.8.68-8.78,1.7-1.99,1.02-3.33,2.67-4.01,4.95-.68,2.28-1.02,5.52-1.02,9.72v51.33c0,7.96-.51,14.9-1.54,20.81-1.02,5.91-2.84,11.03-5.46,15.35-2.84,4.77-6.99,8.61-12.45,11.51s-11.71,4.35-18.76,4.35c-5.46,0-10.66-.66-15.61-1.96-4.95-1.31-9.29-3.72-13.05-7.25-3.3-3.18-5.88-6.54-7.76-10.06-1.87-3.52-3.15-7.85-3.84-12.96-.68-5.12-1.03-11.54-1.03-19.27v-53.55c0-4.2-.34-7.3-1.02-9.3-.68-1.99-2.02-3.35-4.01-4.09-1.99-.74-4.92-1.16-8.78-1.28v-3.41c2.39.12,5.51.23,9.38.34,3.86.12,8.01.17,12.45.17,3.98,0,7.93-.06,11.85-.17,3.92-.11,7.19-.23,9.81-.34v3.41c-3.87.12-6.79.54-8.78,1.28-1.99.74-3.33,2.1-4.01,4.09-.68,1.99-1.02,5.09-1.02,9.3v56.45c0,5.8.28,11.28.85,16.46.57,5.18,1.73,9.72,3.49,13.64,1.76,3.92,4.46,6.99,8.1,9.21,3.64,2.22,8.47,3.33,14.5,3.33,8.64,0,15.32-1.9,20.04-5.71,4.72-3.81,8.01-9.07,9.89-15.78,1.88-6.71,2.81-14.27,2.81-22.68v-53.21c0-4.2-.49-7.45-1.45-9.72-.97-2.27-2.59-3.92-4.86-4.95-2.27-1.02-5.35-1.59-9.21-1.7v-3.41c2.05.12,4.75.23,8.1.34,3.35.12,6.45.17,9.29.17s5.88-.06,8.78-.17c2.9-.11,5.26-.23,7.08-.34Z"/>
  <path class="cls-3" d="m926.09,406.83c.45,1.48.96,2.96,1.54,4.44l-20.98,31.21c-4.09,6.14-6.22,10.86-6.4,14.15-.17,3.3,1.11,5.6,3.84,6.91,2.73,1.31,6.48,2.02,11.25,2.13v3.41c-1.59-.11-3.41-.2-5.46-.26-2.05-.06-4.12-.11-6.23-.17-2.1-.06-4.15-.09-6.14-.09h-5.2c-2.84,0-5.54.03-8.1.09-2.56.06-4.69.2-6.4.43v-3.41c3.52-.57,6.82-2.16,9.89-4.78,3.07-2.62,6.19-6.25,9.38-10.91l28.99-43.15Zm-9.38-58.5v3.58c-5.69,0-9.15.6-10.4,1.79-1.25,1.19-1.08,3.1.51,5.71l63.78,97.55c2.16,3.3,3.98,5.49,5.46,6.57,1.48,1.08,3.47,1.74,5.97,1.96v3.58c-1.48-.11-3.55-.26-6.22-.43-2.67-.17-5.49-.26-8.44-.26-4.55,0-9.12.08-13.73.26-4.6.17-8.04.31-10.32.43v-3.58c5.68,0,9.32-.34,10.91-1.02,1.59-.68,1.59-2.27,0-4.78l-64.81-99.26c-2.16-3.29-3.95-5.51-5.37-6.65-1.42-1.14-3.44-1.76-6.05-1.88v-3.58c1.48.12,3.58.26,6.31.43,2.73.17,5.51.25,8.36.25,4.66,0,9.04-.08,13.13-.25,4.09-.17,7.73-.31,10.91-.43Zm61.74,0v3.41c-3.53.46-6.82,2.02-9.89,4.69-3.07,2.67-6.2,6.34-9.38,11l-27.46,40.93-1.02-4.43,19.44-28.99c4.09-6.14,6.48-10.86,7.16-14.16.68-3.29-.12-5.6-2.39-6.91-2.27-1.31-5.8-2.02-10.57-2.13v-3.41c2.16.12,4.38.2,6.65.26,2.27.06,4.52.12,6.74.17,2.22.06,4.29.08,6.22.08,2.96,0,5.68-.06,8.19-.17,2.5-.11,4.6-.23,6.31-.34Z"/>
  <path class="cls-3" d="m983.56,348.33c2.39.12,5.51.23,9.38.34,3.86.12,7.67.17,11.43.17,5.34,0,10.46-.06,15.35-.17,4.89-.11,8.36-.17,10.4-.17,9.21,0,16.86,1.31,22.94,3.92,6.08,2.62,10.63,6.17,13.64,10.66,3.01,4.49,4.52,9.52,4.52,15.09,0,3.41-.68,7.05-2.05,10.91-1.36,3.87-3.72,7.5-7.08,10.92-3.35,3.41-7.93,6.22-13.73,8.44-5.8,2.22-13.13,3.33-22,3.33h-16.37v-3.41h14.67c8.07,0,14.24-1.28,18.5-3.84,4.26-2.56,7.16-5.97,8.7-10.23,1.54-4.26,2.3-9.01,2.3-14.24,0-8.98-2.13-15.94-6.39-20.89-4.27-4.95-11.57-7.42-21.92-7.42-5.23,0-8.64.97-10.23,2.9-1.59,1.93-2.39,5.86-2.39,11.77v84.59c0,4.09.34,7.16,1.02,9.21.68,2.05,2.02,3.41,4.01,4.09,1.99.68,4.92,1.14,8.78,1.37v3.41c-2.62-.23-5.88-.37-9.81-.43-3.92-.06-7.87-.09-11.85-.09-4.44,0-8.59.03-12.45.09-3.87.06-6.99.2-9.38.43v-3.41c3.86-.23,6.79-.68,8.78-1.37,1.99-.68,3.33-2.05,4.01-4.09.68-2.05,1.02-5.12,1.02-9.21v-84.59c0-4.2-.34-7.3-1.02-9.3-.68-1.99-2.02-3.35-4.01-4.09-1.99-.74-4.92-1.16-8.78-1.28v-3.41Zm27.12,60.54c6.14.23,10.97.48,14.5.77,3.52.28,6.4.54,8.61.77,2.22.23,4.35.51,6.39.85,7.62,1.25,13.1,3.56,16.46,6.91,3.35,3.36,5.83,8.56,7.42,15.61l4.26,17.39c1.14,5,2.3,8.61,3.5,10.83,1.19,2.22,3.04,3.27,5.54,3.16,1.93-.11,3.55-.74,4.86-1.88,1.31-1.13,2.7-2.67,4.18-4.6l2.56,1.88c-2.39,3.53-4.86,6.22-7.42,8.1-2.56,1.87-6.17,2.81-10.83,2.81-4.21,0-7.9-1.25-11.09-3.75-3.18-2.5-5.57-7.39-7.16-14.67l-3.75-17.05c-1.02-4.89-2.19-9.12-3.49-12.71-1.31-3.58-3.13-6.4-5.46-8.44-2.33-2.05-5.77-3.07-10.32-3.07h-18.42l-.34-2.9Z"/>
  <path class="cls-3" d="m1130.74,348.33v3.41c-3.87.12-6.8.54-8.78,1.28-1.99.74-3.33,2.1-4.01,4.09-.68,1.99-1.02,5.09-1.02,9.3v84.59c0,4.09.34,7.16,1.02,9.21.68,2.05,2.02,3.41,4.01,4.09,1.99.68,4.92,1.14,8.78,1.37v3.41c-2.62-.23-5.88-.37-9.81-.43-3.92-.06-7.87-.09-11.85-.09-4.44,0-8.59.03-12.45.09-3.87.06-6.99.2-9.38.43v-3.41c3.86-.23,6.79-.68,8.78-1.37,1.99-.68,3.33-2.05,4.01-4.09.68-2.05,1.02-5.12,1.02-9.21v-84.59c0-4.2-.34-7.3-1.02-9.3-.68-1.99-2.02-3.35-4.01-4.09-1.99-.74-4.92-1.16-8.78-1.28v-3.41c2.39.12,5.51.23,9.38.34,3.86.12,8.01.17,12.45.17,3.98,0,7.93-.06,11.85-.17,3.92-.11,7.19-.23,9.81-.34Z"/>
  <path class="cls-3" d="m1184.81,348.33c20.35,0,35.47,5.09,45.37,15.26,9.89,10.18,14.84,24.76,14.84,43.74,0,12.39-2.42,23.22-7.25,32.49-4.83,9.27-11.85,16.46-21.06,21.58-9.21,5.11-20.35,7.67-33.43,7.67-1.7,0-3.98-.06-6.82-.17-2.84-.11-5.77-.2-8.78-.25-3.01-.06-5.77-.09-8.27-.09-3.98,0-7.9.03-11.77.09-3.87.06-6.99.2-9.38.43v-3.41c3.86-.23,6.79-.68,8.78-1.37,1.99-.68,3.33-2.05,4.01-4.09.68-2.05,1.02-5.12,1.02-9.21v-84.59c0-4.2-.34-7.3-1.02-9.3-.68-1.99-2.02-3.35-4.01-4.09-1.99-.74-4.92-1.16-8.78-1.28v-3.41c2.39.12,5.51.26,9.38.43,3.86.17,7.67.2,11.43.08,3.98-.11,8.47-.23,13.47-.34,5-.11,9.09-.17,12.28-.17Zm-4.26,3.07c-5.23,0-8.64.97-10.23,2.9-1.59,1.93-2.39,5.86-2.39,11.77v85.27c0,5.91.82,9.83,2.47,11.77,1.65,1.93,5.09,2.9,10.32,2.9,12.39,0,22-2.24,28.82-6.74,6.82-4.49,11.6-11.06,14.33-19.7,2.73-8.64,4.09-19.16,4.09-31.55s-1.51-23.28-4.52-31.64c-3.01-8.36-7.96-14.61-14.84-18.76-6.88-4.15-16.23-6.22-28.05-6.22Z"/>
  <path class="cls-3" d="m1311.69,345.94c7.39,0,13.36,1.11,17.91,3.33,4.55,2.22,8.81,4.8,12.79,7.76,1.48,1.14,2.62,1.7,3.41,1.7,2.16,0,3.58-3.47,4.26-10.4h3.92c-.23,4.21-.4,9.32-.51,15.35-.12,6.03-.17,13.99-.17,23.88h-3.92c-.8-4.77-1.77-9.38-2.9-13.81-1.14-4.43-3.01-8.24-5.63-11.43-3.3-4.2-7.62-7.47-12.96-9.81-5.35-2.33-10.86-3.5-16.54-3.5s-10.83,1.39-15.43,4.18c-4.6,2.79-8.56,6.8-11.85,12.02-3.3,5.23-5.83,11.51-7.59,18.85-1.76,7.33-2.64,15.61-2.64,24.81,0,20.46,3.3,35.45,9.89,44.94,6.59,9.5,16.82,14.24,30.7,14.24,4.09,0,7.65-.6,10.66-1.79,3.01-1.19,5.37-2.36,7.08-3.49,2.16-1.48,3.52-2.87,4.09-4.18.57-1.31.85-3.04.85-5.2v-16.37c0-4.66-.46-8.13-1.36-10.4-.91-2.27-2.59-3.81-5.03-4.6-2.45-.79-6.06-1.25-10.83-1.36v-3.41c2.05.12,4.44.2,7.16.26,2.73.06,5.6.12,8.61.17,3.01.06,5.77.08,8.27.08,3.75,0,7.13-.06,10.15-.17,3.01-.11,5.54-.23,7.59-.34v3.41c-2.5.11-4.38.51-5.63,1.19-1.25.68-2.08,2.05-2.47,4.09-.4,2.05-.6,5.18-.6,9.38v33.77h-3.41c-.12-1.93-.54-4.04-1.28-6.31-.74-2.27-1.85-3.41-3.33-3.41-.68,0-1.36.17-2.05.51s-1.88,1.14-3.58,2.39c-3.75,2.84-7.73,5.09-11.94,6.74-4.21,1.65-9.1,2.47-14.67,2.47-11.71,0-21.74-2.41-30.1-7.25-8.36-4.83-14.75-11.79-19.18-20.89-4.44-9.09-6.65-19.95-6.65-32.57,0-13.3,2.39-24.78,7.16-34.45,4.78-9.66,11.28-17.14,19.53-22.43,8.24-5.29,17.65-7.93,28.22-7.93Z"/>
  <path class="cls-3" d="m1452.9,348.33c-.45,3.98-.77,7.85-.94,11.6-.17,3.75-.26,6.59-.26,8.53,0,2.05.06,4.01.17,5.88.11,1.88.23,3.44.34,4.69h-3.92c-.68-6.71-1.65-12.02-2.9-15.94-1.25-3.92-3.38-6.71-6.39-8.36-3.01-1.65-7.53-2.47-13.56-2.47h-14.15c-3.87,0-6.8.31-8.78.94-1.99.63-3.33,1.94-4.01,3.92-.68,1.99-1.02,5.09-1.02,9.3v84.59c0,4.09.34,7.16,1.02,9.21.68,2.05,2.02,3.38,4.01,4.01,1.99.63,4.92.94,8.78.94h12.45c7.16,0,12.59-.96,16.29-2.9,3.69-1.93,6.37-5.09,8.02-9.47,1.65-4.37,2.87-10.32,3.67-17.82h3.92c-.34,3.07-.51,7.16-.51,12.28,0,2.16.09,5.26.26,9.3.17,4.04.48,8.21.94,12.53-5.8-.23-12.34-.37-19.61-.43-7.28-.06-13.76-.09-19.44-.09h-9.63c-3.92,0-8.16.03-12.71.09-4.55.06-9.15.11-13.81.17-4.66.06-9.1.14-13.3.26v-3.41c3.86-.23,6.79-.68,8.78-1.37,1.99-.68,3.33-2.05,4.01-4.09.68-2.05,1.02-5.12,1.02-9.21v-84.59c0-4.2-.34-7.3-1.02-9.3-.68-1.99-2.02-3.35-4.01-4.09-1.99-.74-4.92-1.16-8.78-1.28v-3.41c4.2.12,8.64.2,13.3.26,4.66.06,9.27.12,13.81.17,4.55.06,8.78.08,12.71.08h9.63c5.23,0,11.17-.03,17.82-.08,6.65-.06,12.59-.2,17.82-.43Zm-29.33,58.33v3.41h-31.21v-3.41h31.21Zm4.95-22.51c-.46,6.48-.66,11.43-.6,14.84.06,3.41.08,6.54.08,9.38s.06,5.97.17,9.38c.11,3.41.4,8.36.85,14.84h-3.92c-.45-3.64-1-7.19-1.62-10.66-.63-3.47-1.99-6.31-4.09-8.53-2.1-2.22-5.66-3.33-10.66-3.33v-3.41c3.75,0,6.62-.77,8.61-2.3,1.99-1.54,3.44-3.5,4.35-5.88.91-2.39,1.54-4.86,1.88-7.42.34-2.56.68-4.86,1.02-6.91h3.92Z"/>
  <path class="cls-3" d="m679.31,492.51c2.39.12,5.51.23,9.38.34,3.86.12,7.67.17,11.43.17,5.34,0,10.46-.06,15.35-.17,4.89-.11,8.36-.17,10.4-.17,11.94,0,20.92,2.5,26.95,7.5,6.02,5,9.04,11.43,9.04,19.27,0,3.98-.83,7.87-2.47,11.68-1.65,3.81-4.38,7.28-8.19,10.4-3.81,3.13-8.9,5.66-15.26,7.59v.34c8.98,1.14,16,3.27,21.06,6.39,5.06,3.13,8.61,6.8,10.66,11,2.05,4.21,3.07,8.64,3.07,13.3,0,6.48-1.62,12.19-4.86,17.14-3.24,4.95-7.93,8.84-14.07,11.68-6.14,2.84-13.47,4.26-22,4.26-2.5,0-6.25-.08-11.25-.26-5-.17-11.03-.26-18.08-.26-3.98,0-7.9.03-11.77.09-3.87.06-6.99.2-9.38.43v-3.41c3.86-.23,6.79-.68,8.78-1.37,1.99-.68,3.33-2.05,4.01-4.09.68-2.05,1.02-5.12,1.02-9.21v-84.59c0-4.2-.34-7.3-1.02-9.3-.68-1.99-2.02-3.35-4.01-4.09-1.99-.74-4.92-1.16-8.78-1.28v-3.41Zm42.29,3.41c-5.23,0-8.64.97-10.23,2.9-1.59,1.93-2.39,5.86-2.39,11.77v84.59c0,3.98.34,6.99,1.02,9.04.68,2.05,1.93,3.41,3.75,4.09,1.82.68,4.49,1.02,8.02,1.02,11.14,0,19.24-2.58,24.3-7.76,5.06-5.17,7.59-12.53,7.59-22.08,0-8.76-2.36-15.52-7.08-20.3-4.72-4.77-12.48-7.16-23.28-7.16h-17.57v-2.9h14.67c6.71,0,11.88-1.28,15.52-3.84,3.64-2.56,6.14-5.97,7.5-10.23,1.36-4.26,2.05-8.84,2.05-13.73,0-8.41-1.85-14.75-5.54-19.02-3.7-4.26-9.81-6.39-18.34-6.39Z"/>
  <path class="cls-3" d="m882.26,492.51v3.41c-3.87.12-6.8.68-8.78,1.7-1.99,1.02-3.33,2.67-4.01,4.95-.68,2.28-1.02,5.52-1.02,9.72v51.33c0,7.96-.51,14.9-1.54,20.81-1.02,5.91-2.84,11.03-5.46,15.35-2.84,4.77-6.99,8.61-12.45,11.51s-11.71,4.35-18.76,4.35c-5.46,0-10.66-.66-15.61-1.96-4.95-1.31-9.29-3.72-13.05-7.25-3.3-3.18-5.88-6.54-7.76-10.06-1.87-3.52-3.15-7.85-3.84-12.96-.68-5.12-1.03-11.54-1.03-19.27v-53.55c0-4.2-.34-7.3-1.02-9.3-.68-1.99-2.02-3.35-4.01-4.09-1.99-.74-4.92-1.16-8.78-1.28v-3.41c2.39.12,5.51.23,9.38.34,3.86.12,8.01.17,12.45.17,3.98,0,7.93-.06,11.85-.17,3.92-.11,7.19-.23,9.81-.34v3.41c-3.87.12-6.79.54-8.78,1.28-1.99.74-3.33,2.1-4.01,4.09-.68,1.99-1.02,5.09-1.02,9.3v56.45c0,5.8.28,11.28.85,16.46.57,5.18,1.73,9.72,3.49,13.64,1.76,3.92,4.46,6.99,8.1,9.21,3.64,2.22,8.47,3.33,14.5,3.33,8.64,0,15.32-1.9,20.04-5.71,4.72-3.81,8.01-9.07,9.89-15.78,1.88-6.71,2.81-14.27,2.81-22.68v-53.21c0-4.2-.49-7.45-1.45-9.72-.97-2.27-2.59-3.92-4.86-4.95s-5.35-1.59-9.21-1.7v-3.41c2.05.12,4.75.23,8.1.34,3.35.12,6.45.17,9.29.17s5.88-.06,8.78-.17c2.9-.11,5.26-.23,7.08-.34Z"/>
  <path class="cls-3" d="m930.69,492.51v3.41c-3.87.12-6.8.54-8.78,1.28-1.99.74-3.33,2.1-4.01,4.09-.68,1.99-1.02,5.09-1.02,9.3v84.59c0,4.09.34,7.16,1.02,9.21.68,2.05,2.02,3.41,4.01,4.09,1.99.68,4.92,1.14,8.78,1.37v3.41c-2.62-.23-5.88-.37-9.81-.43-3.92-.06-7.87-.09-11.85-.09-4.44,0-8.59.03-12.45.09-3.87.06-6.99.2-9.38.43v-3.41c3.86-.23,6.79-.68,8.78-1.37,1.99-.68,3.33-2.05,4.01-4.09.68-2.05,1.02-5.12,1.02-9.21v-84.59c0-4.2-.34-7.3-1.02-9.3-.68-1.99-2.02-3.35-4.01-4.09-1.99-.74-4.92-1.16-8.78-1.28v-3.41c2.39.12,5.51.23,9.38.34,3.86.12,8.01.17,12.45.17,3.98,0,7.93-.06,11.85-.17,3.92-.11,7.19-.23,9.81-.34Z"/>
  <path class="cls-3" d="m981.69,492.51v3.41c-3.87.12-6.8.54-8.78,1.28-1.99.74-3.33,2.1-4.01,4.09-.68,1.99-1.02,5.09-1.02,9.3v84.59c0,4.09.34,7.16,1.02,9.21.68,2.05,2.02,3.38,4.01,4.01,1.99.63,4.92.94,8.78.94h12.45c5.34,0,9.69-.57,13.05-1.7,3.35-1.14,6.02-2.93,8.02-5.37,1.99-2.44,3.49-5.71,4.52-9.81,1.03-4.09,1.82-9.09,2.39-15.01h3.92c-.34,3.53-.51,8.19-.51,13.99,0,2.16.09,5.26.26,9.3.17,4.04.48,8.21.94,12.53-5.8-.23-12.34-.37-19.61-.43-7.28-.06-13.76-.09-19.44-.09h-9.63c-3.92,0-8.16.03-12.71.09-4.55.06-9.15.11-13.81.17-4.66.06-9.1.14-13.3.26v-3.41c3.86-.23,6.79-.68,8.78-1.37,1.99-.68,3.33-2.05,4.01-4.09.68-2.05,1.02-5.12,1.02-9.21v-84.59c0-4.2-.34-7.3-1.02-9.3-.68-1.99-2.02-3.35-4.01-4.09-1.99-.74-4.92-1.16-8.78-1.28v-3.41c2.39.12,5.51.23,9.38.34,3.86.12,8.01.17,12.45.17,3.98,0,7.93-.06,11.85-.17,3.92-.11,7.19-.23,9.81-.34Z"/>
  <path class="cls-3" d="m1078.22,492.51c20.35,0,35.47,5.09,45.37,15.26,9.89,10.18,14.84,24.76,14.84,43.74,0,12.39-2.42,23.22-7.25,32.49-4.83,9.27-11.85,16.46-21.06,21.58-9.21,5.11-20.35,7.67-33.43,7.67-1.7,0-3.98-.06-6.82-.17-2.84-.11-5.77-.2-8.78-.25-3.01-.06-5.77-.09-8.27-.09-3.98,0-7.9.03-11.77.09-3.87.06-6.99.2-9.38.43v-3.41c3.86-.23,6.79-.68,8.78-1.37,1.99-.68,3.33-2.05,4.01-4.09.68-2.05,1.02-5.12,1.02-9.21v-84.59c0-4.2-.34-7.3-1.02-9.3-.68-1.99-2.02-3.35-4.01-4.09-1.99-.74-4.92-1.16-8.78-1.28v-3.41c2.39.12,5.51.26,9.38.43,3.86.17,7.67.2,11.43.08,3.98-.11,8.47-.23,13.47-.34,5-.11,9.09-.17,12.28-.17Zm-4.26,3.07c-5.23,0-8.64.97-10.23,2.9-1.59,1.93-2.39,5.86-2.39,11.77v85.27c0,5.91.82,9.83,2.47,11.77,1.65,1.93,5.09,2.9,10.32,2.9,12.39,0,22-2.24,28.82-6.74,6.82-4.49,11.6-11.06,14.33-19.7,2.73-8.64,4.09-19.16,4.09-31.55s-1.51-23.28-4.52-31.64c-3.01-8.36-7.96-14.61-14.84-18.76-6.88-4.15-16.23-6.22-28.05-6.22Z"/>
  <path class="cls-3" d="m1190.09,492.51v3.41c-3.87.12-6.8.54-8.78,1.28-1.99.74-3.33,2.1-4.01,4.09-.68,1.99-1.02,5.09-1.02,9.3v84.59c0,4.09.34,7.16,1.02,9.21.68,2.05,2.02,3.41,4.01,4.09,1.99.68,4.92,1.14,8.78,1.37v3.41c-2.62-.23-5.88-.37-9.81-.43-3.92-.06-7.87-.09-11.85-.09-4.44,0-8.59.03-12.45.09-3.87.06-6.99.2-9.38.43v-3.41c3.86-.23,6.79-.68,8.78-1.37,1.99-.68,3.33-2.05,4.01-4.09.68-2.05,1.02-5.12,1.02-9.21v-84.59c0-4.2-.34-7.3-1.02-9.3-.68-1.99-2.02-3.35-4.01-4.09-1.99-.74-4.92-1.16-8.78-1.28v-3.41c2.39.12,5.51.23,9.38.34,3.86.12,8.01.17,12.45.17,3.98,0,7.93-.06,11.85-.17,3.92-.11,7.19-.23,9.81-.34Z"/>
  <path class="cls-3" d="m1304.7,492.51v3.41c-3.87.12-6.8.68-8.78,1.7-1.99,1.02-3.33,2.67-4.01,4.95-.68,2.28-1.02,5.52-1.02,9.72v101.82h-3.92l-71.63-110.68v90.05c0,4.09.37,7.31,1.11,9.64.74,2.33,2.22,3.98,4.43,4.95,2.22.97,5.54,1.56,9.98,1.79v3.41c-2.05-.23-4.72-.37-8.02-.43-3.3-.06-6.42-.09-9.38-.09s-5.71.03-8.61.09c-2.9.06-5.32.2-7.25.43v-3.41c3.86-.23,6.79-.83,8.78-1.79,1.99-.96,3.33-2.62,4.01-4.95.68-2.33,1.02-5.54,1.02-9.64v-82.88c0-4.2-.34-7.3-1.02-9.3-.68-1.99-2.02-3.35-4.01-4.09-1.99-.74-4.92-1.16-8.78-1.28v-3.41c1.93.12,4.35.23,7.25.34,2.9.12,5.77.17,8.61.17,2.5,0,4.89-.06,7.16-.17,2.27-.11,4.32-.23,6.14-.34l60.2,92.78v-72.99c0-4.2-.37-7.45-1.11-9.72-.74-2.27-2.22-3.92-4.43-4.95-2.22-1.02-5.54-1.59-9.98-1.7v-3.41c2.05.12,4.75.23,8.1.34,3.35.12,6.45.17,9.29.17s5.88-.06,8.78-.17c2.9-.11,5.26-.23,7.08-.34Z"/>
  <path class="cls-3" d="m1366.95,490.12c7.39,0,13.36,1.11,17.91,3.33,4.55,2.22,8.81,4.8,12.79,7.76,1.48,1.14,2.62,1.7,3.41,1.7,2.16,0,3.58-3.47,4.26-10.4h3.92c-.23,4.21-.4,9.32-.51,15.35-.12,6.03-.17,13.99-.17,23.88h-3.92c-.8-4.77-1.77-9.38-2.9-13.81-1.14-4.43-3.01-8.24-5.63-11.43-3.3-4.2-7.62-7.47-12.96-9.81-5.35-2.33-10.86-3.5-16.54-3.5s-10.83,1.39-15.43,4.18c-4.6,2.79-8.56,6.8-11.85,12.02-3.3,5.23-5.83,11.51-7.59,18.85-1.76,7.33-2.64,15.61-2.64,24.81,0,20.46,3.3,35.45,9.89,44.94,6.59,9.5,16.82,14.24,30.7,14.24,4.09,0,7.65-.6,10.66-1.79,3.01-1.19,5.37-2.36,7.08-3.49,2.16-1.48,3.52-2.87,4.09-4.18.57-1.31.85-3.04.85-5.2v-16.37c0-4.66-.46-8.13-1.36-10.4-.91-2.27-2.59-3.81-5.03-4.6-2.45-.79-6.06-1.25-10.83-1.36v-3.41c2.05.12,4.44.2,7.16.26,2.73.06,5.6.12,8.61.17,3.01.06,5.77.08,8.27.08,3.75,0,7.13-.06,10.15-.17,3.01-.11,5.54-.23,7.59-.34v3.41c-2.5.11-4.38.51-5.63,1.19-1.25.68-2.08,2.05-2.47,4.09-.4,2.05-.6,5.18-.6,9.38v33.77h-3.41c-.12-1.93-.54-4.04-1.28-6.31-.74-2.27-1.85-3.41-3.33-3.41-.68,0-1.36.17-2.05.51-.68.34-1.88,1.14-3.58,2.39-3.75,2.84-7.73,5.09-11.94,6.74-4.21,1.65-9.1,2.47-14.67,2.47-11.71,0-21.74-2.41-30.1-7.25-8.36-4.83-14.75-11.79-19.18-20.89-4.44-9.09-6.65-19.95-6.65-32.57,0-13.3,2.39-24.78,7.16-34.45,4.78-9.66,11.28-17.14,19.53-22.43,8.24-5.29,17.65-7.93,28.22-7.93Z"/>
  <path class="cls-3" d="m735.42,634.3c7.5,0,13.67,1.11,18.5,3.33s9.12,4.8,12.88,7.76c2.27,1.7,4.01,1.9,5.2.6,1.19-1.31,2.02-4.4,2.47-9.3h3.92c-.23,4.21-.4,9.32-.51,15.35-.12,6.03-.17,13.99-.17,23.88h-3.92c-.8-4.89-1.54-8.78-2.22-11.68-.68-2.9-1.51-5.37-2.47-7.42-.97-2.05-2.25-4.09-3.84-6.14-3.53-4.66-7.96-8.04-13.3-10.15-5.35-2.1-10.97-3.16-16.88-3.16-5.57,0-10.6,1.39-15.09,4.18-4.49,2.79-8.36,6.8-11.6,12.02-3.24,5.23-5.74,11.54-7.5,18.93-1.76,7.39-2.64,15.69-2.64,24.9s.96,17.99,2.9,25.33c1.93,7.33,4.63,13.5,8.1,18.5,3.47,5.01,7.56,8.78,12.28,11.34,4.72,2.56,9.81,3.84,15.26,3.84,5.12,0,10.46-1.02,16.03-3.07,5.57-2.05,9.95-5.34,13.13-9.89,2.5-3.29,4.24-6.88,5.2-10.74.96-3.86,1.85-9.27,2.64-16.2h3.92c0,10.35.06,18.67.17,24.98.11,6.31.28,11.63.51,15.95h-3.92c-.46-4.89-1.22-7.96-2.3-9.21-1.08-1.25-2.87-1.08-5.37.51-4.21,2.96-8.67,5.54-13.39,7.76-4.72,2.22-10.77,3.33-18.16,3.33-10.8,0-20.27-2.44-28.4-7.33-8.13-4.89-14.44-11.94-18.93-21.15-4.49-9.21-6.74-20.29-6.74-33.26s2.33-23.88,6.99-33.43c4.66-9.55,11.06-17,19.19-22.34,8.13-5.34,17.48-8.02,28.05-8.02Z"/>
  <path class="cls-3" d="m845.94,634.3c10.8,0,20.26,2.45,28.4,7.33,8.13,4.89,14.44,11.91,18.93,21.06,4.49,9.15,6.74,20.27,6.74,33.34s-2.3,23.88-6.91,33.43c-4.6,9.55-11,17-19.19,22.34-8.19,5.35-17.56,8.01-28.14,8.01s-20.27-2.44-28.4-7.33c-8.13-4.89-14.44-11.94-18.93-21.15-4.49-9.21-6.74-20.29-6.74-33.26s2.33-23.88,6.99-33.43c4.66-9.55,11.06-17,19.19-22.34,8.13-5.34,17.48-8.02,28.05-8.02Zm-.68,3.07c-7.39,0-13.82,2.56-19.27,7.68-5.46,5.12-9.7,12.17-12.71,21.15-3.01,8.98-4.52,19.38-4.52,31.21s1.68,22.54,5.03,31.47c3.35,8.93,7.9,15.8,13.64,20.64,5.74,4.83,12.08,7.25,19.02,7.25,7.39,0,13.82-2.56,19.27-7.68,5.46-5.11,9.69-12.19,12.71-21.23,3.01-9.04,4.52-19.41,4.52-31.12s-1.68-22.68-5.03-31.55c-3.36-8.87-7.88-15.72-13.56-20.55-5.69-4.83-12.05-7.25-19.1-7.25Z"/>
  <path class="cls-3" d="m1015.12,636.69v3.41c-3.87.12-6.8.68-8.78,1.7-1.99,1.02-3.33,2.67-4.01,4.95-.68,2.28-1.02,5.52-1.02,9.72v101.82h-3.92l-71.63-110.68v90.05c0,4.09.37,7.31,1.11,9.64.74,2.33,2.22,3.98,4.43,4.95,2.22.97,5.54,1.56,9.98,1.79v3.41c-2.05-.23-4.72-.37-8.02-.43-3.3-.06-6.42-.09-9.38-.09s-5.71.03-8.61.09c-2.9.06-5.32.2-7.25.43v-3.41c3.86-.23,6.79-.83,8.78-1.79,1.99-.96,3.33-2.62,4.01-4.95.68-2.33,1.02-5.54,1.02-9.64v-82.88c0-4.2-.34-7.3-1.02-9.3-.68-1.99-2.02-3.35-4.01-4.09-1.99-.74-4.92-1.16-8.78-1.28v-3.41c1.93.12,4.35.23,7.25.34,2.9.12,5.77.17,8.61.17,2.5,0,4.89-.06,7.16-.17,2.27-.11,4.32-.23,6.14-.34l60.2,92.78v-72.99c0-4.2-.37-7.45-1.11-9.72-.74-2.27-2.22-3.92-4.43-4.95-2.22-1.02-5.54-1.59-9.98-1.7v-3.41c2.05.12,4.75.23,8.1.34,3.35.12,6.45.17,9.29.17s5.88-.06,8.78-.17c2.9-.11,5.26-.23,7.08-.34Z"/>
  <path class="cls-3" d="m1115.4,636.69c-.46,4.32-.77,8.5-.94,12.54-.17,4.04-.26,7.13-.26,9.29,0,2.73.06,5.29.17,7.68.11,2.39.23,4.49.34,6.31h-3.92c-.8-7.96-1.88-14.24-3.24-18.85-1.36-4.6-3.75-7.93-7.16-9.98-3.41-2.05-8.7-3.07-15.86-3.07h-9.21v97.04c0,4.55.43,7.96,1.28,10.23.85,2.28,2.53,3.81,5.03,4.6,2.5.8,6.14,1.31,10.91,1.54v3.41c-2.96-.23-6.71-.37-11.25-.43-4.55-.06-9.15-.09-13.82-.09-5.11,0-9.92.03-14.41.09-4.49.06-8.1.2-10.83.43v-3.41c4.78-.23,8.41-.74,10.92-1.54,2.5-.79,4.18-2.33,5.03-4.6.85-2.27,1.28-5.68,1.28-10.23v-97.04h-9.21c-7.05,0-12.31,1.02-15.78,3.07-3.47,2.05-5.88,5.37-7.25,9.98-1.36,4.6-2.45,10.89-3.24,18.85h-3.92c.23-1.82.37-3.92.43-6.31.05-2.39.08-4.95.08-7.68,0-2.16-.08-5.26-.26-9.29s-.48-8.21-.94-12.54c4.78.12,9.98.23,15.61.34,5.63.12,11.28.17,16.97.17h30.95c5.63,0,11.28-.06,16.97-.17,5.68-.11,10.86-.23,15.52-.34Z"/>
  <path class="cls-3" d="m1120.68,636.69c2.39.12,5.51.23,9.38.34,3.86.12,7.67.17,11.43.17,5.34,0,10.46-.06,15.35-.17,4.89-.11,8.36-.17,10.4-.17,9.21,0,16.86,1.31,22.94,3.92,6.08,2.62,10.63,6.17,13.64,10.66,3.01,4.49,4.52,9.52,4.52,15.09,0,3.41-.68,7.05-2.05,10.91-1.36,3.87-3.72,7.5-7.08,10.92-3.35,3.41-7.93,6.22-13.73,8.44-5.8,2.22-13.13,3.33-22,3.33h-16.37v-3.41h14.67c8.07,0,14.24-1.28,18.5-3.84,4.26-2.56,7.16-5.97,8.7-10.23,1.54-4.26,2.3-9.01,2.3-14.24,0-8.98-2.13-15.94-6.39-20.89-4.27-4.95-11.57-7.42-21.92-7.42-5.23,0-8.64.97-10.23,2.9-1.59,1.93-2.39,5.86-2.39,11.77v84.59c0,4.09.34,7.16,1.02,9.21.68,2.05,2.02,3.41,4.01,4.09,1.99.68,4.92,1.14,8.78,1.37v3.41c-2.62-.23-5.88-.37-9.81-.43-3.92-.06-7.87-.09-11.85-.09-4.44,0-8.59.03-12.45.09-3.87.06-6.99.2-9.38.43v-3.41c3.86-.23,6.79-.68,8.78-1.37,1.99-.68,3.33-2.05,4.01-4.09.68-2.05,1.02-5.12,1.02-9.21v-84.59c0-4.2-.34-7.3-1.02-9.3-.68-1.99-2.02-3.35-4.01-4.09-1.99-.74-4.92-1.16-8.78-1.28v-3.41Zm27.12,60.54c6.14.23,10.97.48,14.5.77,3.52.28,6.4.54,8.61.77,2.22.23,4.35.51,6.39.85,7.62,1.25,13.1,3.56,16.46,6.91,3.35,3.36,5.83,8.56,7.42,15.61l4.26,17.39c1.14,5,2.3,8.61,3.5,10.83,1.19,2.22,3.04,3.27,5.54,3.16,1.93-.11,3.55-.74,4.86-1.88,1.31-1.13,2.7-2.67,4.18-4.6l2.56,1.88c-2.39,3.53-4.86,6.22-7.42,8.1-2.56,1.87-6.17,2.81-10.83,2.81-4.21,0-7.9-1.25-11.09-3.75-3.18-2.5-5.57-7.39-7.16-14.67l-3.75-17.05c-1.02-4.89-2.19-9.12-3.49-12.71-1.31-3.58-3.13-6.4-5.46-8.44-2.33-2.05-5.77-3.07-10.32-3.07h-18.42l-.34-2.9Z"/>
  <path class="cls-3" d="m1272.3,635.84l41.61,107.27c1.7,4.32,3.64,7.19,5.8,8.61,2.16,1.42,4.15,2.19,5.97,2.3v3.41c-2.28-.23-5.06-.37-8.36-.43-3.3-.06-6.59-.09-9.89-.09-4.43,0-8.59.03-12.45.09-3.87.06-6.99.2-9.38.43v-3.41c5.8-.23,9.49-1.22,11.09-2.99,1.59-1.76,1.25-5.54-1.02-11.34l-31.72-84.76,2.73-2.22-29.67,77.09c-1.82,4.55-2.9,8.39-3.24,11.51s-.03,5.6.94,7.42c.96,1.82,2.61,3.13,4.95,3.92,2.33.8,5.26,1.25,8.78,1.37v3.41c-3.19-.23-6.51-.37-9.98-.43-3.47-.06-6.68-.09-9.63-.09s-5.26.03-7.25.09c-1.99.06-3.84.2-5.54.43v-3.41c2.27-.57,4.6-1.9,6.99-4.01,2.39-2.1,4.55-5.71,6.48-10.83l40.08-103.35h2.73Zm20.8,72.48v3.41h-50.82l1.7-3.41h49.12Z"/>
  <path class="cls-3" d="m1379.4,634.3c7.5,0,13.67,1.11,18.5,3.33,4.83,2.22,9.12,4.8,12.88,7.76,2.27,1.7,4.01,1.9,5.2.6,1.19-1.31,2.02-4.4,2.47-9.3h3.92c-.23,4.21-.4,9.32-.51,15.35-.12,6.03-.17,13.99-.17,23.88h-3.92c-.8-4.89-1.54-8.78-2.22-11.68-.68-2.9-1.51-5.37-2.47-7.42-.97-2.05-2.25-4.09-3.84-6.14-3.53-4.66-7.96-8.04-13.3-10.15-5.35-2.1-10.97-3.16-16.88-3.16-5.57,0-10.6,1.39-15.09,4.18-4.49,2.79-8.36,6.8-11.6,12.02-3.24,5.23-5.74,11.54-7.5,18.93-1.76,7.39-2.64,15.69-2.64,24.9s.96,17.99,2.9,25.33c1.93,7.33,4.63,13.5,8.1,18.5,3.47,5.01,7.56,8.78,12.28,11.34,4.72,2.56,9.81,3.84,15.26,3.84,5.12,0,10.46-1.02,16.03-3.07,5.57-2.05,9.95-5.34,13.13-9.89,2.5-3.29,4.24-6.88,5.2-10.74.96-3.86,1.85-9.27,2.64-16.2h3.92c0,10.35.06,18.67.17,24.98.11,6.31.28,11.63.51,15.95h-3.92c-.46-4.89-1.22-7.96-2.3-9.21-1.08-1.25-2.87-1.08-5.37.51-4.21,2.96-8.67,5.54-13.39,7.76-4.72,2.22-10.77,3.33-18.16,3.33-10.8,0-20.27-2.44-28.4-7.33-8.13-4.89-14.44-11.94-18.93-21.15-4.49-9.21-6.74-20.29-6.74-33.26s2.33-23.88,6.99-33.43c4.66-9.55,11.06-17,19.19-22.34,8.13-5.34,17.48-8.02,28.05-8.02Z"/>
  <path class="cls-3" d="m1527.6,636.69c-.46,4.32-.77,8.5-.94,12.54-.17,4.04-.26,7.13-.26,9.29,0,2.73.06,5.29.17,7.68.11,2.39.23,4.49.34,6.31h-3.92c-.8-7.96-1.88-14.24-3.24-18.85-1.36-4.6-3.75-7.93-7.16-9.98-3.41-2.05-8.7-3.07-15.86-3.07h-9.21v97.04c0,4.55.43,7.96,1.28,10.23.85,2.28,2.53,3.81,5.03,4.6,2.5.8,6.14,1.31,10.91,1.54v3.41c-2.96-.23-6.71-.37-11.25-.43-4.55-.06-9.15-.09-13.82-.09-5.11,0-9.92.03-14.41.09-4.49.06-8.1.2-10.83.43v-3.41c4.78-.23,8.41-.74,10.92-1.54,2.5-.79,4.18-2.33,5.03-4.6.85-2.27,1.28-5.68,1.28-10.23v-97.04h-9.21c-7.05,0-12.31,1.02-15.78,3.07-3.47,2.05-5.88,5.37-7.25,9.98-1.36,4.6-2.45,10.89-3.24,18.85h-3.92c.23-1.82.37-3.92.43-6.31.05-2.39.08-4.95.08-7.68,0-2.16-.08-5.26-.26-9.29-.17-4.04-.48-8.21-.94-12.54,4.78.12,9.98.23,15.61.34,5.63.12,11.28.17,16.97.17h30.95c5.63,0,11.28-.06,16.97-.17,5.68-.11,10.86-.23,15.52-.34Z"/>
  <path class="cls-3" d="m1576.38,636.69v3.41c-3.87.12-6.8.54-8.78,1.28-1.99.74-3.33,2.1-4.01,4.09-.68,1.99-1.02,5.09-1.02,9.3v84.59c0,4.09.34,7.16,1.02,9.21.68,2.05,2.02,3.41,4.01,4.09,1.99.68,4.92,1.14,8.78,1.37v3.41c-2.62-.23-5.88-.37-9.81-.43-3.92-.06-7.87-.09-11.85-.09-4.44,0-8.59.03-12.45.09-3.87.06-6.99.2-9.38.43v-3.41c3.86-.23,6.79-.68,8.78-1.37,1.99-.68,3.33-2.05,4.01-4.09.68-2.05,1.02-5.12,1.02-9.21v-84.59c0-4.2-.34-7.3-1.02-9.3-.68-1.99-2.02-3.35-4.01-4.09-1.99-.74-4.92-1.16-8.78-1.28v-3.41c2.39.12,5.51.23,9.38.34,3.86.12,8.01.17,12.45.17,3.98,0,7.93-.06,11.85-.17,3.92-.11,7.19-.23,9.81-.34Z"/>
  <path class="cls-3" d="m1690.98,636.69v3.41c-3.87.12-6.8.68-8.78,1.7-1.99,1.02-3.33,2.67-4.01,4.95-.68,2.28-1.02,5.52-1.02,9.72v101.82h-3.92l-71.63-110.68v90.05c0,4.09.37,7.31,1.11,9.64.74,2.33,2.22,3.98,4.43,4.95,2.22.97,5.54,1.56,9.98,1.79v3.41c-2.05-.23-4.72-.37-8.02-.43-3.3-.06-6.42-.09-9.38-.09s-5.71.03-8.61.09c-2.9.06-5.32.2-7.25.43v-3.41c3.86-.23,6.79-.83,8.78-1.79,1.99-.96,3.33-2.62,4.01-4.95.68-2.33,1.02-5.54,1.02-9.64v-82.88c0-4.2-.34-7.3-1.02-9.3-.68-1.99-2.02-3.35-4.01-4.09-1.99-.74-4.92-1.16-8.78-1.28v-3.41c1.93.12,4.35.23,7.25.34,2.9.12,5.77.17,8.61.17,2.5,0,4.89-.06,7.16-.17,2.27-.11,4.32-.23,6.14-.34l60.2,92.78v-72.99c0-4.2-.37-7.45-1.11-9.72-.74-2.27-2.22-3.92-4.43-4.95-2.22-1.02-5.54-1.59-9.98-1.7v-3.41c2.05.12,4.75.23,8.1.34,3.35.12,6.45.17,9.29.17s5.88-.06,8.78-.17c2.9-.11,5.26-.23,7.08-.34Z"/>
  <path class="cls-3" d="m1753.23,634.3c7.39,0,13.36,1.11,17.91,3.33,4.55,2.22,8.81,4.8,12.79,7.76,1.48,1.14,2.62,1.7,3.41,1.7,2.16,0,3.58-3.47,4.26-10.4h3.92c-.23,4.21-.4,9.32-.51,15.35-.12,6.03-.17,13.99-.17,23.88h-3.92c-.8-4.77-1.77-9.38-2.9-13.81-1.14-4.43-3.01-8.24-5.63-11.43-3.3-4.2-7.62-7.47-12.96-9.81-5.35-2.33-10.86-3.5-16.54-3.5s-10.83,1.39-15.43,4.18c-4.6,2.79-8.56,6.8-11.85,12.02-3.3,5.23-5.83,11.51-7.59,18.85-1.76,7.33-2.64,15.61-2.64,24.81,0,20.46,3.3,35.45,9.89,44.94,6.59,9.5,16.82,14.24,30.7,14.24,4.09,0,7.65-.6,10.66-1.79,3.01-1.19,5.37-2.36,7.08-3.49,2.16-1.48,3.52-2.87,4.09-4.18.57-1.31.85-3.04.85-5.2v-16.37c0-4.66-.46-8.13-1.36-10.4-.91-2.27-2.59-3.81-5.03-4.6-2.45-.79-6.06-1.25-10.83-1.36v-3.41c2.05.12,4.44.2,7.16.26,2.73.06,5.6.12,8.61.17,3.01.06,5.77.08,8.27.08,3.75,0,7.13-.06,10.15-.17,3.01-.11,5.54-.23,7.59-.34v3.41c-2.5.11-4.38.51-5.63,1.19-1.25.68-2.08,2.05-2.47,4.09-.4,2.05-.6,5.18-.6,9.38v33.77h-3.41c-.12-1.93-.54-4.04-1.28-6.31-.74-2.27-1.85-3.41-3.33-3.41-.68,0-1.36.17-2.05.51-.68.34-1.88,1.14-3.58,2.39-3.75,2.84-7.73,5.09-11.94,6.74-4.21,1.65-9.1,2.47-14.67,2.47-11.71,0-21.74-2.41-30.1-7.25-8.36-4.83-14.75-11.79-19.18-20.89-4.44-9.09-6.65-19.95-6.65-32.57,0-13.3,2.39-24.78,7.16-34.45,4.78-9.66,11.28-17.14,19.53-22.43,8.24-5.29,17.65-7.93,28.22-7.93Z"/>
  <path class="cls-2" d="m338.97,301.41h.03c.48,0,1.08.7,2.28,2.44h0c1.25,1.71,5.11,7.29,6.64,9.53h0c1.54,2.26,1.22,2.45,1.05,3.98h0c-.05.38-.16.93-.2,1.51h0c.23-.57.63-1.19,1.33-1.81h0c1.9-1.69,4.35-2.45,4.95-5.4h0c.63-2.91-1.05-5.81-1.05-5.81h0s3.91,2.9,3.76,7.85h0c-.13,3.57-1.45,6.52-2.71,8.59h0c1.34-1.49,3.51-3.25,6.47-3.58h0c2.83-.24,4.64.35,6.31.96h0c1.41.48,2.72.98,4.43.98h0c3.75,0,7.43-2.79,7.43-2.79h0s.57,3.21-3.34,6.22h0c-3.21,2.53-6.91,1.08-11.3,3.17h0c-1.68.78-2.92,2.07-3.62,2.94h0c1.16-.36,8.27-2.28,14.24.3h0c8.7,3.78,11.73,14.82,11.73,14.82h0s-4.15-6.39-11.84-7.69h0c-4-.69-6.82.68-7.87,1.26h0s0,.05.04.08h0c.72-.08,5.63-.58,11.63,2.29h0c5.9,2.78,8.57,8.44,10.03,12.66h0c1.49,4.28,1.09,8.01,1.09,8.01h0s-1.17-7.57-8.19-11.32h0c-5.56-2.93-9.54-2.11-10.89-1.65h0c.93.03,7.48.32,12.91,7.54h0c5.86,7.78,5.7,18.42,5.7,18.42h0s-1.33-5.69-5.43-9.8h0c-3.78-3.84-8.96-3.46-10.32-3.3h0c1.1.39,7.97,2.93,12.27,9.59h0c3.74,5.84,4.28,12.95,2.75,18.49h0c-.18.63-.4,1.25-.66,1.84h0c1.37,3.92,1.95,7.95.84,11.79h0c-.51,1.76-1.46,3.36-2.57,4.86h0c4.56,5.59,9.73,10.27,14.1,13.57h0c7.26,5.46,10.91,6.15,20.02,10.88h0c7.19,3.76,13.14,9.01,16.91,15.77h0c2.34,2.83,5.1,5.44,9.74,4.18h0c6.85-1.84,5.46-12.83,1.7-22.36h0c-3.78-9.55-9.15-16.15-15.2-16.56h0c-5.15-.35-7.16,10.04-7.16,10.04h0s-5.26-10.67,2.3-14.97h0c1.5-.84,2.93-1.18,4.19-1.22h0c-2.93-3.88-9.38-12.45-15.57-20.33h0c-8.31-10.64-25.56-26.8-23.64-44.54h0c1.72-16.41,17.01-20.99,28.33-13.4h0c11.25,7.63,19.2,20.93,19.44,28.35h0c.21,7.44-2.61,7.86-2.77,13.01h0c-.11,4.09.88,5.32.88,5.32h0s-4.08-4.56-4.17-10.81h0c-.1-6.26.33-6.81-.48-8.73h0c-.85-1.87-2.95-3.14-2.95-3.14h0s2.29,2.87,2.21,6.77h0c-.14,3.94-2.45,8.72-.07,14.39h0c2.35,5.72,5.63,7.29,5.63,7.29h0s-8.64-.53-14.08-9.52h0c-5.98-9.83-3.39-15.46-3.39-15.46h0s-3.07,3.15-2.68,8.61h0c.32,4.81,3.2,8.48,3.2,8.48h0s-5.78-3.49-7.28-9.83h0c-1.53-6.38,1.38-12.8,2.33-17.98h0c.96-5.21-.16-11.22-4.23-13.62h0c-3.91-2.33-11.49-2.33-14.58,8.46h0c-3.08,10.82,5.88,22.5,10.67,29.22h0c4.84,6.73,10.81,13.16,15.46,19.02h0c2.57,3.3,6.77,8.91,9.93,13.28h0c-.24-.9-.41-1.83-.53-2.74h0c-.28-2.74,1-4.2,1.15-6.29h0c.28-3.21-1.43-6.68-1.43-6.68h0s4.52,3.67,5.81,9.33h0c1.24,5.69.24,7.59.89,10.56h0c.63,2.99,3.82,5.95,3.82,5.95h0s-1.7-2.87-1.87-5.38h0c-.19-2.56.36-4.63.35-6.07h0c-.14-4.69-1.46-7.28-1.46-7.28h0s4.46,4.38,5.73,8.28h0c2.58,7.91.04,12.89,1.68,16.7h0c1.67,3.76,6.91,15.02,7.84,22.57h0c.97,7.55-.71,15.2-6.91,18.19h0c-4.12,2.01-7.15,1.3-9.04.46h0c.89,9.02-1.92,20.16-7.33,28.1h0c-6.63,9.78-12.54,17.02-13.33,23.15h0c-.79,6.12,3.17,10.79,7.7,14.42h0c4.53,3.64,7.65,4.44,11.15,5.18h0c3.47.78,3.23,1.59,4.37,4.93h0c1.17,3.38.3,5.29-5.19,13.65h0c-5.47,8.38-11.06,14.15-14.28,20.02h0c-3.19,5.92-.26,8.28,3.51,9.05h0c3.77.76,8.66-5.1,8.66-5.1h0s-5.37,8.96-9.24,9.31h0c-3.85.33-5.35-2.02-5.35-2.02h0s-.45,2,1.54,3.02h0c1.99,1.06,4.35,1,4.35,1h0s-2.17,1.69-5.07,1.36h0c-2.77-.24-3.37-1.05-4.43-1.72h0c.36,1.4.84,3.57,1.04,5h0c.39,2.32.61,5.67.39,6.12h0c-.2.48-2.98,1.43-6.43,3.06h0c-3.4,1.61-8.25,4.37-8.61,4.21h0c-.37-.17.29-4.66.73-7.94h0c.33-2.51.99-5.93,1.26-7.43h0c-1.29-.31-2.87-.95-3.16-1.53h0c-.33-.79.86-3.45,1.52-5.05h0c1.06-2.53,6.56-10.07,11.34-18.26h0c4.79-8.21,11.98-19.21,11.74-21.8h0c-.25-2.6-7.01-3.65-14.16-5.96h0c-7.16-2.33-16.46-7.01-24.13-14.14h0c-1.82-1.73-3.11-3.38-3.98-4.98h0c.62,2.03,1.49,4.57,2.86,6.9h0c1.58,2.77,5.36,7.54,7.87,10.16h0c2.58,2.72,3.08,4.33,2.77,8.27h0c-.33,3.94-1.96,5.88-6.4,8.57h0c-4.48,2.67-10.26,6.32-14.89,9.48h0c-4.64,3.18-5.83,7.47-3.47,11.15h0c2.35,3.64,8.64,1.53,8.64,1.53h0s-3.7,5.41-8.67,4.84h0c-4.95-.57-5.71-4.4-5.71-4.4h0s-.77,1.24-.46,2.83h0c.44,2.28,2.22,2.96,2.22,2.96h0s-2.98.25-5.52-1.27h0c-2.2-1.25-2.26-3.23-2.23-3.85h0c-.48,1.26-1.19,3.22-1.38,5.07h0c-.42,3.77.06,4.99-.42,5.7h0c-.47.76-3.3,1.91-6.24,3.17h0c-2.93,1.3-9.29,4.8-9.68,4.59h0c-.15-.03.02-.86.39-2.06h0c-1.83.73-4.38,1.74-4.65,1.65h0c-.36-.2,1.49-5.84,2.53-9.76h0c.99-3.94,4.13-9.76,4.13-9.76h0c-.6-.89,2.81-2.67,7.02-6.01h0c4.15-3.38,15.91-11.56,22.35-17.75h0c6.39-6.18,4.21-7.86,2.94-9.73h0c-5.19-7.7-11.86-12.42-18.79-24.79h0c-6.88-12.36,6.87-20.8,14.5-27.73h0c5.71-5.19,14.96-13.43,19.22-17.23h0c-1.33-8.76-10.07-11.57-18.78-14.39h0c-9.92-3.24-14.22-.88-22.12-3.1h0c-7.88-2.23-6.68-6.31-7.79-5.28h0c-1.14.96-5.42,1.62-8.8.87h0c-3.39-.77-7.5-2.63-14.84-5.27h0c-7.35-2.67-15.26-5.87-17.83-6.29h0c-1.36-.18-2.34.97-4.67,1.96h0c-2.19.91-3.14.47-3.89,1.66h0c-.69,1.09-2.52,8.47-3.31,14.6h0c-.71,6.12.68,10.59,5.79,12.45h0c5.14,1.87,9.27-8.3,9.27-8.3h0s1.4,4.86-1.47,9.46h0c-2.85,4.63-7.27,4.63-7.27,4.63h0s.21,1.03,1.7,1.52h0c1.52.49,4.85-.14,4.85-.14h0s-2.49,2.66-6.39,2.92h0c-3.86.27-5.11-1.09-5.11-1.09h0s-.05.03-.06.08h0c1.73,2.27,4.78,6.27,5.14,6.59h0c.45.46-2.75,3.71-5.36,7.45h0c-2.59,3.76-4.55,8.83-4.94,8.75h0c-.27-.08-.71-2.27-1.3-4.77h0c-.77,2.09-2.81,5.78-3.13,5.86h0c-.37.12-.69-3.16-1.52-7.98h0c-.59-3.99-1.04-8.25-1.16-9.61h0c-1.16-2.36-.44-7.88.2-13.07h0c.96-7.73,2.68-11.36,4.5-23.6h0c1.79-12.25,1.87-14.03,1.96-16.73h0c.1-2.7.7-3.24,1.64-4.01h0c.93-.73,2.99-2.19,5.11-3.63h0c2.14-1.47,3.4-1.22,4.65-.67h0c1.2.55,1.78.59,5.84,1.48h0c3.73.83,10.89,1.14,16.83,1.43h0c-3.04-3.82-6.14-7.58-7.8-9.58h0c-4.23-5.09-7.36-10.31-8.78-11.13h0c-.79-.45-1.52-.06-2.39.28h0c-.68.27-1.49.56-2.57.47h0c-2.38-.24-2.26-1.45-4.43-1.91h0c-2.16-.47-13.03,3.81-16.46,5.62h0c-3.46,1.8-5.72,3.66-4.62,6.87h0c1.52,4.4,7.45,3.47,7.45,3.47h0s-3.77,3.45-7.68,1.93h0c-5.04-1.98-4.14-7.64-4.14-7.64h0s-1.03,1.24-.9,3.46h0c.03,1.44,1.5,3.94,1.5,3.94h0s-3.12-1-4.67-3.55h0c-1.58-2.54-.47-6.19-.47-6.19h0s-2.87,7.11-3.69,7.45h0c-.85.31-2.28-.68-5.61-1.49h0c-3.28-.78-9.06-1.7-9.2-2.34h0c-.04-.41.89-1.15,2.28-2.33h0c-1-.21-2.95-.64-3.08-1.2h0c-.16-.73,1.76-2.26,4.11-4.39h0c1.93-1.71,4.92-4,5.99-4.79h0v-.13c.22-.77,3.92-2.67,3.92-2.67h0c3.9-2.7,8.54-1.12,15.06-.96h0c6.58.17,16.92-3.82,18.54-4.55h0c1.63-.75,2.16-2.08,2.87-2.55h0c.69-.48,3.8-.28,6.66.26h0c2.89.58,2.68,1.5,3.72,2.28h0c.99.75,4.56,2.9,8.58,4.79h0c3.98,1.86,13.81,6.08,13.95,6.13h0c1.04-4.04,2.86-7.8,5.13-13.57h0c2.97-7.73,2.9-10.38,3.98-18.77h0c1.07-8.39-.7-10.47-.7-10.47h0s-3.11-1.73-7.18-1.14h0c-2.69.39-5.04,4.47-6.6,7.8h0c.51.22,1.38.55,2.81,1.27h0c2.81,1.34,5.06,3.09,5.59,5.3h0c.55,2.51-.53,3.79-.53,3.79h0s0-.89-.69-1.57h0c-.72-.71-1.42-.59-1.42-.59h0s1.01,1.19,1.22,2.51h0c.2,1.33-.21,3.12.81,5.33h0c.91,2.18,3.43,3.02,3.43,3.02h0s-3.39,1.6-7.25-1.22h0c-3.38-2.42-2.66-8.6-3.04-8.67h0c-.15,0,.24,2.74-.47,4.39h0c-.77,1.77-2,2.4-2,2.4h0s.86-3.48.36-6.03h0c-.49-2.51-2.53-3.65-2.53-3.65h0l.13-.26c-.83.45-1.83.59-3.21.86h0c-2.59.5-3.87-.34-4.14-.68h0c-.2-.32,2.92-2.13,4.3-3.89h0c1.28-1.76,1.86-3.8,1.62-5.07h0c-.21-1.32-2.14-.25-4.4.4h0c-2.26.58-1.76,1.12-2.7,3.48h0c-.89,2.31-1.85,4.25-2.8,4.39h0c-.65.12-2.17-1.29-3.12-3.4h0c-.94-2.11-.19-3.99-.13-5.29h0c.06-1.31-.12-2.92-.29-4.28h0c-.09-1.33.39-1.68,1.42-2.74h0c1.03-1.06,4.23-2.71,5.79-4.23h0c1.57-1.51,2.61-4.24,4.28-7.73h0c1.39-3.01,3.41-6.04,4.02-6.92h0c-2.24.07-5.59-.17-8.41-1.96h0c-4.09-2.62-4.49-7.08-4.49-7.08h0s1.67,4.3,7.49,3.9h0c3.86-.25,5.68-3.78,7.85-5.16h0c2.71-1.7,3.75-1.63,3.75-1.63h.02c-1.09-.42-2.39-1.01-2.84-1.44h0s-.67.03-1.34-.03h0c-.96-.09-4.57-.9-5.76-1.83h0s-1.71-.14-4.39-1.3h0c-2.71-1.2-3.71-1.92-4.58-2.59h0c-.07-.05-.13-.15-.19-.23h0v.11s-1.8-.41-3.88-1.35h0c-2.05-.94-3.68-2.14-3.96-2.31h0s-1.72-.45-2.69-.93h0c-.97-.46-2.45-1.34-3.04-2.01h0c-.1-.07-.14-.15-.18-.21h0l.03.04c-.65-.08-3.54-1.62-6.5-3.1h0c-2.97-1.47-4.77-3.03-4.59-3.36h0c.18-.33,2.32.2,3.99.7h0c1.67.5,3.08,1.06,3.08,1.06h0s.15.11.4.25h0c-.19-.12-.27-.25-.27-.25h0s2.31.23,3.84.79h0c1.61.57,2.41,1.24,2.41,1.24h0s.37-.11.93-.06h0c.58.06,2.25.45,3.44.86h0c1.06.36,1.46.45,2.05.81h0c.1.04.22.16.37.29h0c0-.06,0-.13.09-.15h0c.24-.14,2.57.53,4.26.87h0c1.35.24,2.96.79,3.74,1.12h0c.36.15.58.36.76.54h0c0-.12.04-.21.33-.18h0c.92.18,3.3.97,4.86,1.52h0c2.13.78,2.83.93,3.35,1.36h0c.16.11.35.35.56.66h0c-.22-.4-.31-.64-.21-.66h0c.27-.16,2.52.37,3.78.79h0c1.49.48,2.65,1.14,3.13,1.5h0c.25.17.42.39.48.54h0c0-.13,0-.23.12-.29h0c.35-.35,3.38,1.36,5.3,1.94h0c.27.06.53.15.78.22h0l-.29-.27s-1.32-4.07-1.94-6.77h0c-.66-2.69-1.24-6.86-.76-7.12h0c.52-.23,2.54,2.28,3.44,3.23h0c.68.76,1.42,1.5,2.01,2h0v-.07c-.08-1.35-.2-3.15-.31-4.82h0v-.48c0-.16,0-.35,0-.5h0c-.1-1.79-.1-3.2.13-3.21h0Zm-21.12,66.46s-.38-.93-1.51-.93h0c-.19,0-.4.02-.66.09h0c-1.59.44-3.01,2.81-3.61,6.98h0c-.7,4.65-3.96,7.21-6.81,6.31h0c-4.68-1.51-4.5-6.08-4.5-6.08h0s-2.04,5.56,1.33,8.87h0c2.97,2.97,7.21,2.1,9.78-2.01h0c2.76-4.39,1.04-9.43,3.5-12.1h0c1.59-1.7,2.48-1.14,2.48-1.14Z"/>
  <path class="cls-1" d="m300.69,188.19c-3.5,7.12,3.76,15.04,10.5,10.88,1.56,2.33,3.57,4.2,5.61,6.03-1.23,1.25-.92,3.78.49,4.84.76.59,2.35.47,2.7,1.18.5,1.09-1.56,1.58-1.11,3.8.09.45.51.85.84,1.17.18.19,1.05.53.99,1.19-.06.55-.68.41-1.46,1.05-.32.25-1,1.12-1.09,1.45-1.21,3.68,2.09,4.54,4.88,5.24,1.59.4,3.65.79,5.61,1.05,9.34,1.18,19.18,1.64,29.05,1.17,8.36-.4,17.17-.33,24.56-2.22,2.81-.72,5.14-1.6,5.01-4.22-.1-2.02-3.01-2.91-2.68-4.18.13-.64,1.56-.86,1.81-1.96.51-2.35-1.01-2.17-1.1-3.79,2.35-.43,4.2-1.63,3.78-4.33-.05-.36-.77-1.15-.71-1.44,0-.11,1.06-1.12,1.43-1.43,1.92-1.66,2.96-2.95,4.42-4.73,6.8,4.64,14.34-4.17,10.5-11,1.06-.13,1.79-.61,2.06-1.32,1.46-3.89-4.36-5.37-4.77-1.46-6.87-4.28-14.02,4.2-10.37,10.89-2.55.99-6.84,4.85-10.39,3.29-2.13-.95-2.24-4.31-2.07-7.61,5.13.43,6.82-7.27,3.3-10.09.51-.69.88-1.04.86-2.11-.13-3.03-5.24-2.86-4.28,1.07-4.49-.31-6.42,6.09-3.67,9.3-2.66,3.23-5.83,6.79-11.47,6.15-5.85-.66-7.17-6.57-8.07-12.85,5.32-1.91,5.38-10.95.99-14.02-.64-.42-1.38-.47-2.09-1.03.36-.73.58-1.12.5-2.08-.15-1.69-1.25-2.4-2.43-2.4-1.96,0-4.1,1.96-2.35,4.62-5.53.99-7.05,9.67-3.17,13.62.61.64,1.35.77,1.95,1.58-.83,7.08-2.96,13.36-10.5,12.58-4.09-.41-6.63-3.2-8.79-6.03,3-3.18.88-9.55-3.39-9.57.62-5.59-7.01-2.33-3.44,1.18-3.7,2.48-2,10.34,2.81,10.09.33,3.34.01,6.66-2.07,7.61-3.36,1.5-7.62-2.1-10.01-3.15,3.59-7.81-3.92-15.01-10.63-11.03-.08-1.1-.58-1.81-1.22-2.08-3.58-1.52-4.92,4.6-1.34,5.11Z"/>
  <path class="cls-3" d="m1837.3,721.59c2.48,0,4.81.46,6.97,1.38,2.16.92,4.07,2.21,5.72,3.85,1.65,1.65,2.93,3.56,3.85,5.72.92,2.16,1.38,4.49,1.38,6.97s-.46,4.81-1.38,6.97c-.92,2.16-2.21,4.07-3.85,5.72-1.65,1.65-3.56,2.93-5.72,3.85-2.16.92-4.49,1.38-6.97,1.38s-4.81-.46-6.97-1.38c-2.16-.92-4.07-2.21-5.72-3.85-1.65-1.65-2.93-3.55-3.85-5.72-.92-2.16-1.38-4.49-1.38-6.97s.46-4.81,1.38-6.97c.92-2.16,2.21-4.07,3.85-5.72,1.65-1.65,3.55-2.93,5.72-3.85,2.16-.92,4.49-1.38,6.97-1.38Zm0,2.06c-2.83,0-5.39.72-7.68,2.15-2.29,1.44-4.12,3.35-5.49,5.75-1.37,2.4-2.06,5.05-2.06,7.97s.68,5.51,2.06,7.93c1.37,2.42,3.2,4.35,5.49,5.78,2.29,1.44,4.85,2.15,7.68,2.15s5.4-.72,7.71-2.15c2.31-1.43,4.14-3.36,5.49-5.78,1.35-2.42,2.02-5.06,2.02-7.93s-.67-5.57-2.02-7.97c-1.35-2.4-3.18-4.31-5.49-5.75-2.31-1.43-4.88-2.15-7.71-2.15Zm.58,4.75c2.44,0,4.29.44,5.56,1.32,1.26.88,1.9,2.13,1.9,3.76,0,.86-.24,1.7-.71,2.54-.47.84-1.35,1.54-2.63,2.12-1.28.58-3.15.93-5.59,1.06l-3.85.19v-1.03h3.4c2.27,0,3.74-.41,4.4-1.22.66-.81,1-1.82,1-3.02,0-1.63-.33-2.83-1-3.6-.66-.77-1.83-1.16-3.5-1.16-1.03,0-1.69.14-1.99.42-.3.28-.45.85-.45,1.7v14.39c0,.99.1,1.61.29,1.86.19.26.59.43,1.19.51v.96c-.43,0-.93-.01-1.51-.03-.58-.02-1.17-.03-1.77-.03-.69,0-1.32.01-1.89.03-.58.02-1.06.03-1.45.03v-.96c.6-.09,1-.26,1.19-.51.19-.26.29-.88.29-1.86v-14.07c0-1.03-.1-1.68-.29-1.96-.19-.28-.59-.44-1.19-.48v-.96c.39.04.86.06,1.41.06h1.67c1.2,0,2.31-.01,3.34-.03,1.03-.02,1.76-.03,2.18-.03Zm-5.01,10.02c1.46,0,2.49.02,3.12.06.62.04,1.09.1,1.41.16s.72.14,1.19.22c2.01.17,3.39.57,4.14,1.19.75.62,1.23,1.49,1.45,2.6l.77,3.66c.13.56.25,1.05.35,1.48.11.43.37.64.8.64.34,0,.6-.17.77-.51l.64.45c-.26.51-.61.87-1.06,1.06-.45.19-1.04.29-1.77.29-1.11,0-1.93-.21-2.44-.64-.51-.43-.88-1.09-1.09-1.99l-1.09-4.75c-.17-.86-.44-1.5-.8-1.93-.36-.43-1.01-.71-1.93-.83-.92-.13-2.37-.19-4.34-.19l-.13-.96Z"/>
</svg>